/* XPM */
static char *a8993f88b7f64d899ce6040da29b1c7ac7vlEjskJgY6qisC[] = {
/* columns rows colors chars-per-pixel */
"64 64 233 2 ",
"   c #32071B",
".  c #34091D",
"X  c #360A21",
"o  c #390E26",
"O  c #380E29",
"+  c #2D1225",
"@  c #35172A",
"#  c #3B122C",
"$  c #3C1A2C",
"%  c #25133C",
"&  c #2B153D",
"*  c #341532",
"=  c #3E1631",
"-  c #3C1C32",
";  c #36183B",
":  c #3B1E3B",
">  c #2D2838",
",  c #3D2335",
"<  c #3C223B",
"1  c #411F2F",
"2  c #4B1D2E",
"3  c #401734",
"4  c #411936",
"5  c #4A1D31",
"6  c #46153D",
"7  c #431D3B",
"8  c #541638",
"9  c #66183A",
"0  c #432133",
"q  c #4A243A",
"w  c #502132",
"e  c #2A1C41",
"r  c #371A42",
"t  c #2C2946",
"y  c #3C2443",
"u  c #3D2B44",
"i  c #37244A",
"p  c #3F2A4A",
"a  c #2F3B4D",
"s  c #34374A",
"d  c #3D3756",
"f  c #441F40",
"g  c #451B49",
"h  c #581845",
"j  c #441C57",
"k  c #681A43",
"l  c #731F43",
"z  c #452142",
"x  c #432B43",
"c  c #4A2A46",
"v  c #432C4C",
"b  c #522542",
"n  c #532A45",
"m  c #562D49",
"M  c #5A2A48",
"N  c #4C334D",
"B  c #533147",
"V  c #55354C",
"C  c #422655",
"Z  c #582553",
"A  c #453354",
"S  c #4C3553",
"D  c #4B3956",
"F  c #463559",
"G  c #4A3759",
"H  c #453B5B",
"J  c #4C3B5D",
"K  c #533955",
"L  c #543957",
"P  c #533D5B",
"I  c #75224B",
"U  c #693B4D",
"Y  c #732458",
"T  c #673C53",
"R  c #481C66",
"E  c #4B1B77",
"W  c #4B2468",
"Q  c #4E3E62",
"!  c #4E3C69",
"~  c #583664",
"^  c #523E62",
"/  c #74276A",
"(  c #7C2B6C",
")  c #673768",
"_  c #743666",
"`  c #732975",
"'  c #703877",
"]  c #2F4050",
"[  c #324454",
"{  c #344B57",
"}  c #3D455A",
"|  c #3C495C",
" . c #42435B",
".. c #41495D",
"X. c #59415E",
"o. c #6E4152",
"O. c #724355",
"+. c #764859",
"@. c #7B4C5E",
"#. c #73535C",
"$. c #4E4263",
"%. c #484B63",
"&. c #4A4C63",
"*. c #544364",
"=. c #5C4563",
"-. c #584668",
";. c #5C4B6C",
":. c #56506D",
">. c #54536E",
",. c #595674",
"<. c #644765",
"1. c #624A65",
"2. c #624C6A",
"3. c #7E4F60",
"4. c #6E5574",
"5. c #862C56",
"6. c #8C345D",
"7. c #93345A",
"8. c #832E67",
"9. c #8C3367",
"0. c #903467",
"q. c #893478",
"w. c #835364",
"e. c #875868",
"r. c #905F6C",
"t. c #926C71",
"y. c #A87B7E",
"u. c #4E1B85",
"i. c #51168D",
"p. c #521899",
"a. c #592891",
"s. c #7B2E81",
"d. c #7C3688",
"f. c #5718A7",
"g. c #5B0FBA",
"h. c #5D18B9",
"j. c #601DB4",
"k. c #5E23AC",
"l. c #705081",
"z. c #7C668B",
"x. c #7B6E96",
"c. c #5E0DC6",
"v. c #6118C5",
"b. c #630CD9",
"n. c #6815D4",
"m. c #7532C2",
"M. c #7426D3",
"N. c #6609E6",
"B. c #6909EE",
"V. c #6F10EA",
"C. c #7113E7",
"Z. c #7113EF",
"A. c #761BED",
"S. c #781EEE",
"D. c #6704F3",
"F. c #6907F2",
"G. c #6B0AF1",
"H. c #7A22EE",
"J. c #7F29E9",
"K. c #883584",
"L. c #84348B",
"P. c #853694",
"I. c #866C97",
"U. c #87729A",
"Y. c #B17499",
"T. c #8B52B8",
"R. c #8E7CA5",
"E. c #997EAB",
"W. c #8A39D8",
"Q. c #812DEA",
"!. c #8836E6",
"~. c #974CDE",
"^. c #9D56DC",
"/. c #A35ED9",
"(. c #A964D6",
"). c #AA68D7",
"_. c #AA66D9",
"`. c #B476D0",
"'. c #B578D3",
"]. c #9245E1",
"[. c #A567E2",
"{. c #B28789",
"}. c #BE8D8D",
"|. c #BA8D94",
" X c #BC989B",
".X c #9A88B2",
"XX c #A98DB2",
"oX c #C38E8E",
"OX c #C4908F",
"+X c #C59392",
"@X c #C99998",
"#X c #D19E9B",
"$X c #D2A29E",
"%X c #C896B2",
"&X c #D5A5A2",
"*X c #D6A9A5",
"=X c #D9AAA6",
"-X c #D3A5AB",
";X c #D6ACAA",
":X c #DBAEA9",
">X c #DEB1AD",
",X c #D2A5BB",
"<X c #DAB4B3",
"1X c #DEB8B6",
"2X c #E1B5AE",
"3X c #E3B8B7",
"4X c #E4BCB5",
"5X c #E2BDBB",
"6X c #E7C3BE",
"7X c #ECC5BB",
"8X c #B98BCE",
"9X c #B1A1CF",
"0X c #C38ACB",
"qX c #CA97C8",
"wX c #C28ED1",
"eX c #C899D2",
"rX c #D7A7C3",
"tX c #DAB2CA",
"yX c #DBBACD",
"uX c #DDBAD6",
"iX c #DEBED9",
"pX c #DFC0DA",
"aX c #E9C6C5",
"sX c #EDCCC4",
"dX c #F0CEC8",
"fX c #EED3CB",
"gX c #F1D2CA",
"hX c #E3C3DC",
"jX c #E6CCDA",
"kX c #EDD5D4",
"lX c #F3DBD4",
"zX c #F2DBD6",
"xX c #F7E1D9",
/* pixels */
"F.F.F.F.F.F.F.F.F.F.F.F.F.F.F.F.F.F.F.F.F.F.F.F.F.F.F.F.F.F.F.F.F.F.F.F.F.F.F.F.F.F.F.F.F.F.F.F.F.F.F.F.F.F.F.F.F.F.F.F.F.F.F.F.",
"F.F.F.F.F.F.F.F.F.F.F.F.F.F.F.F.F.F.F.F.F.F.F.F.F.F.F.F.F.F.F.F.F.F.F.F.F.F.F.F.F.F.F.F.F.F.F.F.F.F.F.F.F.F.F.F.F.F.F.F.F.F.F.F.",
"F.F.F.F.F.F.F.F.F.F.F.F.F.F.F.F.F.F.F.F.F.F.F.F.F.F.F.F.F.F.F.F.F.F.F.F.F.F.F.F.F.F.F.F.F.F.F.F.F.F.F.F.F.F.F.F.F.F.F.F.F.F.F.F.",
"F.F.F.F.F.F.F.F.F.F.F.F.F.F.F.F.F.F.F.F.F.F.F.F.F.F.F.F.F.F.F.F.F.F.F.F.F.F.F.F.F.F.F.F.F.F.F.F.F.F.F.F.F.F.F.F.F.F.F.F.F.F.F.F.",
"F.F.F.F.F.F.F.F.F.F.F.F.F.F.F.F.F.F.F.F.F.F.F.F.F.F.F.F.F.F.F.F.F.F.F.F.F.F.F.F.F.F.F.F.F.F.F.F.F.F.F.F.F.F.F.F.F.F.F.F.F.F.F.F.",
"F.F.F.F.F.F.F.F.F.F.F.F.F.F.F.F.F.F.F.F.F.F.F.F.F.F.F.F.F.F.F.F.F.F.F.F.G.F.F.F.F.F.F.F.F.F.F.F.F.F.F.F.F.F.F.F.F.F.F.F.F.F.F.F.",
"F.F.F.F.F.F.F.F.F.F.F.F.F.F.F.F.F.F.F.F.F.F.F.F.F.F.F.F.F.F.F.F.F.F.F.F.G.F.F.F.F.F.F.F.F.F.F.F.F.F.F.F.F.F.F.F.F.F.F.F.F.F.F.F.",
"F.F.F.F.F.F.F.F.F.F.F.F.F.F.F.F.F.F.F.F.F.F.F.F.F.F.F.F.F.F.F.F.F.F.F.F.F.F.F.F.F.F.F.F.F.F.F.F.F.F.F.F.F.F.F.F.F.F.F.F.F.F.F.F.",
"F.F.F.F.F.F.F.F.F.F.F.F.F.F.F.F.F.F.F.F.F.F.F.F.F.F.F.F.F.F.F.F.G.G.G.G.F.F.F.D.D.D.D.D.D.F.F.F.F.F.F.F.F.F.F.F.F.F.F.F.F.F.F.F.",
"F.F.F.F.F.F.F.F.F.F.F.F.F.F.F.F.F.F.F.F.F.F.F.F.F.F.F.F.F.F.F.G./.wX8X8X'.'.).)._./.^.^.].Z.F.F.F.F.F.F.F.F.F.F.F.F.F.F.F.F.F.F.",
"F.F.F.F.F.F.F.F.F.F.F.F.F.F.F.F.F.F.F.F.F.F.F.F.F.F.F.F.F.F.F.F.J.(.1X4X1X5X5X5X4X<X3X%X].G.F.F.F.F.F.F.F.F.F.F.F.F.F.F.F.F.F.F.",
"F.F.F.F.F.F.F.F.F.F.F.F.F.G.A.S.S.S.S.S.H.S.S.S.S.S.S.S.S.S.S.S.A.H.eXsX4XsXdXdXsX4XsX).V.C.A.S.S.S.S.S.S.S.H.H.H.H.H.S.S.S.H.S.",
"F.F.F.F.F.F.F.F.F.F.F.F.F.F.[.pXpXpXiXuXiXiXiXiXiXiXhXhXhXuXtXtXtXtXaXdX6XsXzXgX7XaXsX|.Y.Y.%XtXtXtXtXtXtXuXhXhXhXhXiXtXtXiXhXuX",
"B.F.F.F.F.F.F.F.F.F.F.F.F.F.J.yXxXxXxXkXfXzXzXzXzXkXzXxXxXzXfXsXfXfXsXsXaXaXxXzX<XaX4X+X+X#X7XsXsXsXsXsXsXzXxXxXxXxXzXsXzXxXzX).",
"G.F.F.F.B.B.F.F.F.F.F.F.F.F.F.^.wXwXqX<X<X<X<X<X<X<X<X<X<X<X<X*X*X*X*X;X:X&X5X5X&X;X@X}.}.@X;X;X;X;X:X:X>X1X5X5X5X5X<X,XeXeX).V.",
"F.F.c.E E a.a.a.k.f.j.h.g.c.c.b.b.N.M.+X$X&X&X&X&X&X*X*X*X*X&X&X&X*X*X=X=X=X=X:X=X=X=X=X=X=X=X=X:X:X:X:X:X:X:X:X:X:X-XW.B.B.G.F.",
"G.F.f., < K P P P P P L L S v C g j j T #.3.e.t.t.t.y.y.y.{.oXoXoXoXoXoXoXoXoXoX}.}.}.}.}.}.}.}.}.}.}.}.}.OX@X$X>X>X/.G.F.F.F.F.",
"F.F.g., < P P =.L L K L K L K K N c q , - $ $ $ $ - - , , 0 w w w w w 5 5 2 2 2 2 2 2 2 2 5 5 5 5 5 5 5 5 O.oX#X4X3X!.D.F.F.F.F.",
"F.F.g.< < K P =.z 8 8 M M b b b b z z q : - @ @ @ @ @ - $ $                       . . . X X X o o o o O O U +X&X7X5XQ.D.F.F.F.F.",
"F.F.c.< < K P X.r 8 9 5.6.l k l 5.T a s s s s t > > + , $ $ . . . . . . . . . . . . X X X X o o o o O O O U +X&X7XtXJ.F.F.F.F.F.",
"F.F.c.: , K P P r 8 9 9.0.I k I 7.<.| { { { { { { ] : q $ $ . . . . . . . . . . . X X X o o o o o # # # # U +X*X7XtXH.F.F.F.F.F.",
"F.F.c.r , K P P ; 8 9 9.0.I k 5.6.=.{ { [ [ [ [ [ a : c $ $ . . . . . . . . . . X X X o o o o o # # # # # U OX&X7XrXA.F.F.F.F.F.",
"F.F.b.g , S P P ; 6 9 8.9.Y k 5.6.*.{ [ [ [ [ [ [ a : c 1 $ . . . . . . . . . X X X X o o o o # # # # # # U oX*X7XrXA.F.F.F.F.F.",
"F.F.b.g , S P P ; 6 9 8.9.Y l 6._ %.[ [ ] a ] [ [ s : B 0 $ . . . . . . . . . X X X o o o o # # # # # # # T oX=X7XrXZ.F.F.F.F.F.",
"F.F.N.j , S P P y 6 9 8.9.Y Y 0._ >.| } } } | ..| s : n 4 $ . . . . . . . . X X X X o o o # # # # # # # # o.OX=X7XqXZ.F.F.F.F.F.",
"F.F.N.j , N P P y 6 k 8.9.Y Y 0.) ,.>.&.&.&.&.&.%.s : B 1 $ . . . . . . . X X X X o o o # # # # # # # # # o.oX:X7XqXG.F.F.F.F.F.",
"F.F.N.R , N P P y ; k 8.q.Y Y 0.P >.%.}  . . ...} t : B 1 $ . . . . . . X X X X o o o o # # # # # # # = # o.oX:X7X0XG.F.F.F.F.F.",
"F.F.B.R , K =.P y ; k 8.q.Y Y 9.D >.%. . . . . .} t : B 1 $ . . . . . X X X X o o o o # # # # # # # = = = O.oX>X7X0XG.F.F.F.F.F.",
"F.F.B.E , K 2.1.x & k 8.q./ ( 9.A ,.%. . . . . .d t : B 0 $ . . . . X X X X o o o o # # # # # # # = = = = O.oX>X7X'.G.F.F.F.F.F.",
"F.F.F.E , K 2.1.v & k 8.q./ ( 8.s ,.%. . . . . .d t : V 0 $ . . . X X X X o o o o # # # # # # # = = = = = O.oX2X7X`.F.F.F.F.F.F.",
"F.F.F.u., V 2.1.v & h ( q./ 8._ t ,.%.H H H  . .d t : V 0 $ . . X X X X X o o o # # # # # # # = = = = = = O.oX2X7X).F.F.F.F.F.F.",
"F.F.F.i., N 2.1.N e h ( q./ q._ d ,.>.$.$.$.$.$.H t : V 0 $ . X X X X X o o o # # # # # # # = = = = = 3 = O.oX2X7X(.D.F.F.F.F.F.",
"F.F.F.p., N 2.1.N & h ( q.` q.) d ,.$.H H H H H H t : V 0 $ X X X X o o o o # # # # # # # = = = = = 3 3 = +.oX4XdX/.D.F.F.F.F.F.",
"F.F.F.f., N 1.1.S % h ( K.` q.) H >.$.F F F H H d e : K 0 $ X X X X o o o # # # # # # # # = = = = 3 3 3 = +.oX4XsX^.F.F.F.F.F.F.",
"F.F.F.j.X.S z..X2.% h ( K.` q.~ F -.Q F F F F G d % : K q $ X X X o o o # # # # # # # # = = = = 3 3 3 3 = +.+X4X7X~.F.F.F.F.F.F.",
"F.F.F.M.E.=.R.9X9Xx.h ( K.` q.~ F -.Q F F F G G d % : K q $ X o o o o o # # # # # # # = = = = 3 3 3 3 3 = +.+X4X7X~.D.F.F.F.F.F.",
"F.F.F.M.E.1.U.E.XX.XZ ( L.s.q.^ G ;.*.Q Q Q Q Q F e : L q $ X o o o o # # # # # # = = = = = 3 3 3 3 3 3 3 +.+X4X5X!.D.F.G.G.F.F.",
"F.F.F.n.U.<.U..Xz.A g / L.s.d.;.-.4.;.-.-.-.-.*.J e : L q $ o o o o # # # # # # # = = = = = 3 3 3 3 3 7 7 +.+X4X5X!.D.F.F.F.F.F.",
"F.F.F.n.4.=.I.U.z.% r / L.L.' G F -.Q G G G J J A % : L x $ o o o # # # # # # # = = = = = 3 3 3 3 3 7 7 7 @.@XsXdX!.D.F.F.F.F.F.",
"F.F.F.n.l.=.4.I.l.& r / L.L.' G G -.^ J J J J P A % : L x $ o o # # # # # # # = = = = = 3 3 3 3 3 7 7 7 7 @.-XzXjX!.D.F.F.F.F.F.",
"F.F.F.b.C x P *.P & r ` P.L.) G J -.^ J ^ P ^ ^ A % : P x $ o # # # # # # # = = = = = 3 3 3 3 3 7 7 7 7 7 @.;XzXjXQ.F.F.F.F.F.F.",
"F.F.F.b.C x P X.P & & ` P.L.~ J J -.^ J J J J ^ A % : P x $ # # # # # # # # = = = = 3 3 3 3 7 7 7 7 7 7 7 @.;XzXhXH.F.F.F.F.F.F.",
"F.F.F.N.C u J X.P y i ` P.d.~ G G ^ Q J Q ^ Q *.G v x P v - # # # # # # # = = = = 3 3 3 3 3 7 7 7 7 7 7 7 @.;XkXuXS.F.F.F.F.F.F.",
"F.F.F.N.R u J ^ P *.=.` P.d.=.=.=.=.=.1.2.2.;.2.;.=.X.P v - # # # # # # = = = = 3 3 3 3 3 7 7 7 7 7 7 7 7 @.#X7XrXA.F.F.F.F.F.F.",
"F.F.F.N.W u J ^ J S S ~ ) ~ S S S D P S S S D D D D D P N - # # # # # = = = = 3 3 3 3 3 7 7 7 7 7 7 7 7 7 @.#X7XrXZ.F.F.F.F.F.F.",
"F.F.F.B.E u J *.J : c =.=.=.1.1.K v P y S =.1.4.4.=.x P N - # # # # = = = = = 3 3 3 3 3 7 7 7 7 7 7 7 f 7 3.$X7XqXZ.F.F.F.F.F.F.",
"F.F.F.B.E u G $.J : ; G J J Q Q A v P : : A A F F F y J S - # # # = = = = = 3 3 3 3 3 7 7 7 7 7 7 7 7 7 7 3.&X7XqXG.F.F.F.F.F.F.",
"F.F.F.F.u.u G $.Q : * A F F F G A v J : ; v v v v A x J S - # # = = = = = 3 3 3 3 3 7 7 7 7 7 7 7 7 7 f f 3.&X7X0XG.F.F.F.F.F.F.",
"F.F.F.F.u.u G $.Q < * v A A A A A v Q : ; p p p p A x J S - # = = = = = 3 3 3 3 3 7 7 7 7 7 7 7 7 7 f z f w.=X7X8XG.F.F.F.F.F.F.",
"F.F.F.F.p.u G $.$.y * p v v v A A v Q : ; y y y y v v J D - = = = = = 3 3 3 3 3 7 7 7 7 7 7 7 7 f f z z f w.=X7X'.G.F.F.F.F.F.F.",
"F.F.F.F.p.u G $.$.y * y p p p v A v Q : * y y y y v y Q G : = = = = 3 3 3 7 3 7 7 7 7 7 7 7 7 7 f z z z z w.:X7X`.F.F.F.F.F.F.F.",
"F.F.F.F.f.u F $.$.y * y y y y y v v Q : * y y y y p y Q G < = = = 3 3 3 3 3 7 7 7 7 7 7 7 7 7 f z z z z z w.:X7X).F.F.F.F.F.F.F.",
"F.F.F.F.f.u F $.$.v * : y y y y p v Q : * y y y y y y Q G , = = 3 3 3 3 7 7 7 7 7 7 7 7 7 7 f z z z z z z e.>X7X(.D.F.F.F.F.F.F.",
"F.F.F.F.h.u F $.$.v * < y y y y y v Q : ; y y y y y y Q J < = = 3 3 3 3 7 7 7 7 7 7 7 7 7 f z z z z z z z e.2X7X/.D.F.F.F.F.F.F.",
"F.F.F.F.g.p F $.$.F y y p y u u y A $.v v v v v v v v Q J < = = = 3 3 3 7 7 7 7 7 7 7 7 7 f f f z z z z z e.2X7X^.D.F.F.F.F.F.F.",
"F.F.F.F.c.p A *.*.$.Q Q Q Q Q Q ! ! ! ! ! ! ! *.-.*.*.*.P x q q q q q q b b b n n n n n m m m m m m m m m r.2X7X~.D.F.F.F.F.F.F.",
"F.F.F.F.b.p.f.k.k.h.h.h.h.h.h.v.v.v.v.v.v.m.T.|. X{.|.|.|.}.}.}.}.}.}.}.oX+X+X+X@X@X@X@X@X+X@X@X+X+X+X+X@X#X2X4X).!.G.F.F.F.F.F.",
"F.F.F.F.F.F.F.F.F.F.F.F.F.F.F.F.F.F.F.F.G.].(.(.(.(.(.(.(.(.(.(.(.(.(.(.(.(.(._._.).)._.(.(.(.(.(.(.(._._._.(.(.(.^.Z.F.F.F.F.F.",
"F.F.F.F.F.F.F.F.F.F.F.F.F.F.F.F.F.F.F.F.F.F.F.D.D.D.D.D.D.D.D.D.D.D.D.D.D.D.D.D.D.D.D.D.D.D.D.D.D.D.D.D.D.D.D.D.D.F.F.F.F.F.F.F.",
"F.F.F.F.F.F.F.F.F.G.F.F.F.F.F.F.F.F.F.F.F.F.F.F.F.F.F.F.F.F.F.F.F.F.F.F.F.F.F.F.G.F.F.F.F.F.F.F.F.F.F.F.F.F.F.F.F.F.F.F.F.F.F.F.",
"F.F.F.F.F.F.F.F.F.G.F.F.F.F.F.F.F.F.F.F.F.F.F.F.F.F.F.F.F.F.F.F.F.F.F.F.F.F.F.F.F.G.F.F.F.F.F.F.F.F.F.F.F.F.F.F.F.F.F.F.F.F.F.F.",
"F.F.F.F.F.F.F.F.G.G.F.F.F.F.F.F.F.F.F.F.F.F.F.F.F.F.F.F.F.F.F.F.G.F.F.F.F.F.F.F.G.G.F.F.F.F.F.F.F.F.F.F.F.F.F.F.F.F.F.F.F.F.F.F.",
"F.F.F.F.F.F.F.F.G.F.F.F.F.F.F.F.F.F.F.F.F.F.F.F.F.F.F.F.F.F.F.F.F.F.F.F.F.F.F.F.F.F.F.F.F.F.F.F.F.F.F.F.F.F.F.F.F.F.F.F.F.F.F.F.",
"F.F.F.F.F.F.F.F.F.F.F.F.F.F.F.F.F.F.F.F.F.F.F.F.F.F.F.F.F.F.F.F.F.F.F.F.F.F.F.F.F.F.F.F.F.F.F.F.F.F.F.F.F.F.F.F.F.F.F.F.F.F.F.F."
};
