/* XPM */
static char *_af7f611e50f4154f13fb29687139430YMDqTKFfovhiYUmT[] = {
/* columns rows colors chars-per-pixel */
"64 64 225 2 ",
"   c #1C0F3B",
".  c #1D103C",
"X  c #250D24",
"o  c #210E29",
"O  c #2A1027",
"+  c #33122E",
"@  c #371B2E",
"#  c #3B1D2F",
"$  c #2D1132",
"%  c #21133E",
"&  c #2C1D3B",
"*  c #341532",
"=  c #371834",
"-  c #3C1C34",
";  c #3A1E3C",
":  c #3F2135",
">  c #3D223D",
",  c #411A39",
"<  c #432435",
"1  c #44253A",
"2  c #482738",
"3  c #45293D",
"4  c #4C2B3C",
"5  c #241641",
"6  c #291643",
"7  c #251943",
"8  c #2A1C44",
"9  c #2A1D49",
"0  c #381C4C",
"q  c #2E224B",
"w  c #362444",
"e  c #3C2443",
"r  c #33244C",
"t  c #352A4E",
"y  c #3E2A4A",
"u  c #372D50",
"i  c #3A2D51",
"p  c #3E3255",
"a  c #3E3559",
"s  c #481E42",
"d  c #442542",
"f  c #432A44",
"g  c #4B2E45",
"h  c #422D4D",
"j  c #4C2848",
"k  c #502A44",
"l  c #48324D",
"z  c #563449",
"x  c #422F56",
"c  c #5A2757",
"v  c #453353",
"b  c #4A3554",
"n  c #4E3856",
"m  c #483759",
"M  c #423858",
"N  c #443B5A",
"B  c #4B3C5C",
"V  c #563755",
"C  c #553A55",
"Z  c #5A3C55",
"A  c #523C5A",
"S  c #613D4D",
"D  c #662D5D",
"F  c #68345A",
"G  c #473B63",
"H  c #4C3E61",
"J  c #503F61",
"K  c #652C61",
"L  c #682E60",
"P  c #673564",
"I  c #6B3262",
"U  c #6D346A",
"Y  c #783B67",
"T  c #7A3D75",
"R  c #45425C",
"E  c #4A425E",
"W  c #5C435C",
"Q  c #694858",
"!  c #754E5B",
"~  c #4E4163",
"^  c #4E4A63",
"/  c #4E4369",
"(  c #524162",
")  c #5C4663",
"_  c #524D65",
"`  c #5E4A67",
"'  c #564E69",
"]  c #5B4B68",
"[  c #545167",
"{  c #5D5167",
"}  c #565369",
"|  c #5A546B",
" . c #584D73",
".. c #5D5574",
"X. c #644C65",
"o. c #664D66",
"O. c #7E466C",
"+. c #64526E",
"@. c #6B526C",
"#. c #6E586F",
"$. c #785667",
"%. c #7C4279",
"&. c #655873",
"*. c #735B73",
"=. c #6A607B",
"-. c #86456C",
";. c #86586B",
":. c #92536F",
">. c #844574",
",. c #8D5272",
"<. c #825F72",
"1. c #955876",
"2. c #9B5C74",
"3. c #A15E74",
"4. c #8F656E",
"5. c #8A6674",
"6. c #966C75",
"7. c #9A7278",
"8. c #9D7479",
"9. c #A66173",
"0. c #A1777B",
"q. c #A47A7D",
"w. c #A87B7F",
"e. c #655C81",
"r. c #765E82",
"t. c #776483",
"y. c #7A20DF",
"u. c #6C0DEE",
"i. c #6F10EF",
"p. c #7112E7",
"a. c #7214ED",
"s. c #771CED",
"d. c #781EEE",
"f. c #6704F3",
"g. c #6907F2",
"h. c #6B0AF1",
"j. c #7316F0",
"k. c #7B22EC",
"l. c #844783",
"z. c #8C7292",
"x. c #A77D81",
"c. c #A97E83",
"v. c #B17398",
"b. c #8837DB",
"n. c #832DE7",
"m. c #8A38E5",
"M. c #984BDB",
"N. c #9B52DD",
"B. c #9F58DC",
"V. c #A15ADA",
"C. c #B77ACC",
"Z. c #A762D5",
"A. c #A864D6",
"S. c #A966D9",
"D. c #AB69D8",
"F. c #B678D4",
"G. c #9142E2",
"H. c #964CE5",
"J. c #A05CE7",
"K. c #AC6FE3",
"L. c #BA888B",
"P. c #B48C91",
"I. c #B68E93",
"U. c #9989AD",
"Y. c #9E88B3",
"T. c #AD90BE",
"R. c #C49593",
"E. c #C79896",
"W. c #C79999",
"Q. c #CA9C9A",
"!. c #CCA19F",
"~. c #D2A19F",
"^. c #C292A9",
"/. c #CBA2A0",
"(. c #D4A5A1",
"). c #D5A9A6",
"_. c #D9AAA5",
"`. c #D7ABAA",
"'. c #DBAEA9",
"]. c #DCB2AE",
"[. c #D8ABB9",
"{. c #DBB4B3",
"}. c #DCB1B8",
"|. c #E1B4AE",
" X c #E5BBB5",
".X c #E5BCB4",
"XX c #E3BCBB",
"oX c #ECC4BB",
"OX c #EAC4BD",
"+X c #F0C7BF",
"@X c #F0C9BE",
"#X c #B88DCA",
"$X c #BC84D5",
"%X c #B7ABD6",
"&X c #C389CD",
"*X c #CB97C7",
"=X c #C996CC",
"-X c #C697D4",
";X c #D4A4C4",
":X c #DCADC3",
">X c #DFB4C1",
",X c #DAB2CA",
"<X c #CDABD9",
"1X c #DCB8D6",
"2X c #DEBED9",
"3X c #E4B9C2",
"4X c #E2BFD9",
"5X c #C090E1",
"6X c #DFC0DA",
"7X c #E9C8C5",
"8X c #EDCBC4",
"9X c #F1CAC2",
"0X c #F0CEC8",
"qX c #EDD1CA",
"wX c #F1D4CB",
"eX c #F2D9CF",
"rX c #E3C3DC",
"tX c #EED5D4",
"yX c #F2D7D2",
"uX c #F2DBD5",
"iX c #F4DED9",
"pX c #F4E0D6",
"aX c #F5E1D9",
"sX c #F8E2DA",
"dX c #FDEFE2",
/* pixels */
"g.g.g.g.g.g.g.g.g.g.g.g.g.g.g.g.g.g.g.g.g.g.g.g.g.g.g.g.g.g.g.g.g.g.g.g.g.g.g.g.g.g.g.g.g.g.g.g.g.g.g.g.g.g.g.g.g.g.g.g.g.g.g.g.",
"g.g.g.g.g.g.g.g.g.g.g.g.g.g.g.g.g.g.g.g.g.g.g.g.g.g.g.g.g.g.g.g.g.g.g.g.g.g.g.g.g.g.g.g.g.g.g.g.g.g.g.g.g.g.g.g.g.g.g.g.g.g.g.g.",
"g.g.g.g.g.g.g.g.g.g.g.g.g.g.g.g.g.g.g.g.g.g.g.g.g.g.g.g.g.g.g.g.g.g.g.g.g.g.g.g.g.g.g.g.g.g.g.g.g.g.g.g.g.g.g.g.g.g.g.g.g.g.g.g.",
"g.g.g.g.g.g.g.g.g.g.g.g.g.g.g.g.g.g.g.g.g.g.g.g.g.g.g.g.g.g.g.g.g.g.g.g.g.g.g.g.g.g.g.g.g.g.g.g.g.g.g.g.g.g.g.g.g.g.g.g.g.g.g.g.",
"g.g.g.g.g.g.g.g.g.g.g.g.g.g.g.g.g.g.g.g.g.g.g.g.g.g.g.g.g.g.g.g.g.g.g.g.g.g.g.g.g.g.g.g.g.g.g.g.g.g.g.g.g.g.g.g.g.g.g.g.g.g.g.g.",
"g.g.g.g.g.g.g.g.g.g.g.g.g.g.g.g.g.g.g.g.g.g.g.g.g.g.g.g.g.g.g.g.g.g.g.g.g.g.g.g.g.g.g.g.g.g.g.g.g.g.g.g.g.g.g.g.g.g.g.g.g.g.g.g.",
"g.g.g.g.g.g.g.g.g.g.g.g.g.g.g.g.g.g.g.g.g.g.g.g.g.g.g.g.g.g.g.g.g.g.g.g.g.g.g.g.g.g.g.g.g.g.g.g.g.g.g.g.g.g.g.g.g.g.g.g.g.g.g.g.",
"g.g.g.g.g.g.g.g.g.g.g.g.g.g.g.g.g.g.g.g.g.g.g.g.g.g.g.g.g.g.g.g.g.g.g.g.g.g.g.g.g.g.g.g.g.g.g.g.g.g.g.g.g.g.g.g.g.g.g.g.g.g.g.g.",
"g.g.g.g.g.g.g.g.g.g.g.g.g.g.g.g.g.g.g.g.g.g.g.h.g.g.g.g.g.g.g.g.f.f.f.f.f.f.f.g.g.g.g.g.g.g.g.g.g.g.g.g.g.g.g.g.g.g.g.g.g.g.g.g.",
"g.g.g.g.g.g.g.g.g.g.g.g.g.g.g.g.g.g.g.g.g.g.g.N.&X$X$XF.F.F.F.D.S.S.V.V.N.N.G.i.g.g.g.g.g.g.g.g.g.g.g.g.g.g.g.g.g.g.g.g.g.g.g.g.",
"g.g.g.g.g.g.g.g.g.g.g.g.g.g.g.g.g.g.g.g.g.g.f.k.N.*XOX.X{..X.XXX.X.X].{.{.C.m.h.g.g.g.g.g.g.g.g.g.g.g.g.g.g.g.g.g.g.g.g.g.g.g.g.",
"g.j.d.d.d.d.d.s.d.d.d.d.d.d.d.d.d.d.d.d.d.d.d.s.a.B.0X7X{.8X0X0X0X8X X7X>Xb.u.p.p.s.s.d.s.s.d.d.d.d.k.k.k.k.k.k.d.s.d.d.d.k.j.g.",
"g.J.2X6X6X6X2X1X2X2X2X2X2X2X2X6XrXrXrX2X,X,X,X,X,X,X0XwXOX8XwXiX8X7XOXwX].v.v.v.^.,X,X,X,X,X,X,X,X4XrXrXrXrXrX4X,X,X1XrXrX1XG.g.",
"g.s.;XuXpXpXpXuXqXyXuXuXuXuXyXtXuXaXaXaXuX8X8XqXwXqX8X0X7XOXuXdX8X'.7X7XQ.R.R.W.OX8X8X8X8X8X8X8XqXiXsXsXsXsXsXyX8XwXsXsXyXD.g.g.",
"g.g.b.#X-X-X*X{.{.{.{.{.{.{.{.{.{.{.{.{.{.].).).).).).'.].Q.].7X].Q.'.(.L.L.L.W.`.`.`.`.`.'.'.'.{.XXXXXXXXXXXX{.[.-X-X-XA.u.g.g.",
"g.g.g.h.u.g.y.^.(.(.(.(.(.(.(.(.(._._._._._._._._._._._._._._.'.'.'.'._._._._.'.'.'.'.'.'.'.'.'.'.'.'.'.'.'.'.`.M.u.u.u.g.g.g.g.",
"g.g.g.g.g.g.g.m.T._._.(.w.6.7.7.7.7.7.8.8.8.8.8.8.8.0.0.0.0.0.0.0.0.0.0.q.q.q.q.q.q.w.x.c.c.c.c.c.c.c.R.'.|.].N.g.g.g.g.g.g.g.g.",
"g.g.g.g.g.g.g.f.V.oXoX|.! @ - : < < < < < < < < < < 2 2 2 2 2 2 2 2 2 4 4 4 4 4 4 4 4 4 4 k k g 4 2 4 L. XoX}.k.g.g.g.g.g.g.g.g.",
"g.g.g.g.g.g.g.f.M.oX9X.X;.- - : : # # # # - # # - - - : < < < < < < < < < < < < < < 1 1 2 1 2 3 < < 4 L..XoX:Xd.g.g.g.g.g.g.g.g.",
"g.g.g.g.g.g.g.f.G.7X@XoX4.- : < 1 O X o o o o o o o o o o o o = o o o o $ , , , , , , , , O @ 1 1 1 k L..XoX;Xa.g.g.g.g.g.g.g.g.",
"g.g.g.g.g.g.g.f.m.3X@XoX7.: : 3 V = $   .                   % x .       0 D c c D c c c c * g V C g z R.oXoX;Xa.g.g.g.g.g.g.g.g.",
"g.g.g.g.g.g.g.g.n.3X+X+Xq.< : 3 C - $ . . . . . . . . . . . % x %   .   0 T K K T T U K c = g Z Z g z R.oXoX*Xi.g.g.g.g.g.g.g.g.",
"g.g.g.g.g.g.g.g.d.:X@X+XL.1 : 3 C - $ . . . . . . . . . . . % x %   .   0 %.L K T l.U K c * g Z Z g z R.oXoX=Xh.g.g.g.g.g.g.g.g.",
"g.g.g.g.g.g.g.g.a.;X@X+XL.3 : 3 C 1 $ . . . . . . .         . x %       0 %.I L T l.U K c * g Z Z g S E.oXoX&Xg.g.g.g.g.g.g.g.g.",
"g.g.g.g.g.g.g.g.u.*X@X@XR.4 : 3 C 1 $ 5 5 5 5 5 5 5 7 7 7 7 9 G 9 7 7 7 r %.U L T l.U L c * z Z Z g Q Q.oXoXC.g.g.g.g.g.g.g.g.g.",
"g.g.g.g.g.g.g.g.h.&X@X9XW.k : 3 Z d * 6 7 6 7 7 7 8 8 9 9 9 9 H q 9 9 8 r %.T P %.>.U L c = V Z Z g Q ~.oXoXF.g.g.g.g.g.g.g.g.g.",
"g.g.g.g.g.g.g.g.g.$X9X9X~.z : 3 C d $ % % % % . . . . . . . . G 5   . . 6 T T L T >.I L j = C Z Z g Q ~.oXoXD.g.g.g.g.g.g.g.g.g.",
"g.g.g.g.g.g.g.g.g.F.iXuX{.Z : 3 C f $ 6 r r r r r r q 9 9 9 9 / q 7 7 5 5 Y T L T >.I L j = C Z Z g ! (.oXoXZ.f.g.g.g.g.g.g.g.g.",
"g.g.g.g.g.g.g.g.f.K.aXiX7XQ > 3 C g * 6 i i i t t t t t t t t  .u r r 9 5 Y >.I T >.I L s - C Z Z l $._.oXoXB.f.g.g.g.g.g.g.g.g.",
"g.g.g.g.g.g.g.g.f.J.iXiX7X! > f C g * 6 u i u u u u u u t t u  .p t t q 5 P >.I T >.I L s - Z W o.Q 4._.oXoXM.f.g.g.g.g.g.g.g.g.",
"g.g.g.g.g.g.g.g.f.H.uXiXqX$.> f A l * 8 p M v p p p p p p p p ..M p p t 7 P >.I T -.I D s d o.*.*.o.4.'.oXXXG.f.g.g.g.g.g.g.g.g.",
"g.g.g.g.g.g.g.g.f.m.tXiXqX;.> f A l * w N B B B B B B B H H H e./ ~ G a r P >.Y O.O.P P j Z *.*.*.o.4.'.oXXXm.f.g.g.g.g.g.g.g.g.",
"g.g.g.g.g.g.g.g.f.n.tXiXtX5.> f A b * 8 M M M M M M M M M M a ..N a a t 7 V -.Y Y Y D D j W #.@.@.W 4.].8X7Xm.f.g.g.g.g.g.g.g.g.",
"g.g.g.g.g.g.g.g.g.k.rXiXtX7.> f A n * & M N N N N M M M M M M ..B M M u 7 V -.Y Y Y F D d C o.) o.W 7.|.7X3Xn.f.g.g.g.g.g.g.g.g.",
"g.g.g.g.g.g.g.g.g.s.2XiXuXx.3 f A C = & M E E B B B N N N N N ..~ M M a t Z :.-.-.-.Y F , C #.t.t.@.8.|.OX>Xk.g.g.g.g.g.g.g.g.g.",
"g.g.g.g.g.g.g.g.g.j.<XaXuXP.f f A C = & N E E E E E E E R R R ..^ N N N N o.2.1.,.,.-.Y d W U.%X%Xz.8.|.oX:Xk.g.g.g.g.g.g.g.g.g.",
"g.g.g.g.g.g.g.g.g.h.-XwXyXP.f f A A = w ^ ' ' ' ' ' ' ' ' ' | t.&...} _ _ @.2.1.1.,.>.Y d ) T.<X#Xr.0. XoX;Xa.g.g.g.g.g.g.g.g.g.",
"g.g.g.g.g.g.g.g.g.g.$X@X0XP.g f A A ; w ^ ' ' ' ' ' ' ' ' ' } =...} _ _ ^ o.2.2.1.,.,.F 1 o.Y.Y.z.*.w. XoX;Xa.g.g.g.g.g.g.g.g.g.",
"g.g.g.g.g.g.g.g.g.g.F.@X7XR.l f A A ; & R _ _ _ _ _ _ _ _ _ ^ | _ ^ ^ ^ ^ ` 2.2.2.,.,.F > o.T.z.Y.t.c.OXwX<Xj.g.g.g.g.g.g.g.g.g.",
"g.g.g.g.g.g.g.g.g.g.D.@X+XW.z f A A > & R } } [ [ [ _ _ _ _ _ &.} _ _ _ ^ ` 2.3.2.,.,.F > +.T.r.Y.t.P.uXaX<Xi.g.g.g.g.g.g.g.g.g.",
"g.g.g.g.g.g.g.g.g.f.V.+X9X(.Z f B A e & R | | | } } } } } } [ &.| [ [ _ _ { 2.3.2.:.,.F > ] t.r.t.@.P.uXaX-Xg.g.g.g.g.g.g.g.g.g.",
"g.g.g.g.g.g.g.g.g.f.M.oX7X).W h B E d & R | } } } } } } } } } &.| } } [ [ { 2.9.2.:.,.z > ) ] ` ] X.W.uXaX5Xg.g.g.g.g.g.g.g.g.g.",
"g.g.g.g.g.g.g.g.g.f.m.OX+X'.Q h B ( f e R E E E E ^ _ ^ _ _ _ | } ^ ^ ^ ^ _ ;.:.;.;.O.Z f ( ] ] ] o.W.wXeX$Xg.g.g.g.g.g.g.g.g.g.",
"g.g.g.g.g.g.g.g.g.f.n.3X+X|.o.y B J B ) ] ] ] ] ] +.+.] +.+.+.+.+.] ] ] ] ] ] ] ] ` ` ` A ( ( ( ( ) R.oXoXD.g.g.g.g.g.g.g.g.g.g.",
"g.g.g.g.g.g.g.g.g.g.k.3X@X X$.y B ( n b n A A A A A A A n l m B B n b n n n n n n n n b l B J J H o.R.oXoXA.f.g.g.g.g.g.g.g.g.g.",
"g.g.g.g.g.g.g.g.g.g.s.:X@X.X;.y B ~ v > ( o.+.+.+.+.) ) n = h ( ( v h ) ) ) ) ) ) ) ) d ; B ~ ~ H o.W.oXoXV.f.g.g.g.g.g.g.g.g.g.",
"g.g.g.g.g.g.g.g.g.g.a.;X@X.X5.y B ~ v > B v v v v v v v > + h ( ( v h B v v v v v v h * ; H ~ ~ H o.Q.oXoXN.f.g.g.g.g.g.g.g.g.g.",
"g.g.g.g.g.g.g.g.g.g.h.*X@XoX6.h B ~ v ; B v h h h h h h > + h ~ ~ v h B h h h h h h h * ; H ~ ~ H @.~.oXoXM.f.g.g.g.g.g.g.g.g.g.",
"g.g.g.g.g.g.g.g.g.g.g.&X@XoX8.h B ~ m ; B v h h h h h h > + f ~ ~ v h B h h h h h h y * > H ~ ~ H @.(.oXXXm.g.g.g.g.g.g.g.g.g.g.",
"g.g.g.g.g.g.g.g.g.g.g.F.@XoXc.l B ~ B ; B h y y y y y y ; + e ~ ~ m h m y y y y y y e * > H ~ ~ H $._.oXXXm.f.g.g.g.g.g.g.g.g.g.",
"g.g.g.g.g.g.g.g.g.g.g.D.+XoXL.b B ~ B ; m h y y y y y y ; + e ~ ~ m h v y y y y y e e * > H ~ ~ H $._.oXXXn.f.g.g.g.g.g.g.g.g.g.",
"g.g.g.g.g.g.g.g.g.g.f.V.oXoXP.b B ~ B ; v h e e e e e e ; + e ~ ~ m h v e e e e e e e * e ~ ~ ~ H *.'.oX}.k.g.g.g.g.g.g.g.g.g.g.",
"g.g.g.g.g.g.g.g.g.g.g.M.oXoXR.C B ~ H ; v h e e e e e e ; + e ~ ~ B h v e e e e e e e * e ~ ~ ~ H <.].oX[.k.g.g.g.g.g.g.g.g.g.g.",
"g.g.g.g.g.g.g.g.g.g.f.G.OXoXW.A B ~ H > e e e e e e e e ; * e ~ ~ B e e e e e e e e > = e ~ ~ ~ H 5.|.oX;Xa.g.g.g.g.g.g.g.g.g.g.",
"g.g.g.g.g.g.g.g.g.g.f.m.XXoX(.W N H H v v v v v v v v v v v m H H H v v v v v v v v v v m H H H H 5.|.oX;Xa.g.g.g.g.g.g.g.g.g.g.",
"g.g.g.g.g.g.g.g.g.g.f.k.3XoX(.Q W ) ` ` ` ` ` ` ` ` ` ` ` ` ` ` ` ` ` ` ` ` ` ` ` ` ` ` ` ` ` ) W 6. XoX*Xh.f.g.g.g.g.g.g.g.g.g.",
"g.g.g.g.g.g.g.g.g.a.n.M.}..X_.R.R.R.R.R.R.R.R.R.R.R.R.R.E.E.W.Q.Q.!.!./.!.Q.Q.Q.W.Q.W.W.E.E.E.E.Q.Q.|..X[.G.n.g.g.g.g.g.g.g.g.g.",
"g.g.g.g.g.g.g.g.g.d.V.Z.Z.Z.Z.A.A.A.A.A.A.A.A.A.A.A.A.A.Z.A.A.A.S.S.S.S.S.S.A.Z.Z.Z.Z.Z.A.A.A.A.D.D.A.A.S.S.H.h.g.g.g.g.g.g.g.g.",
"g.g.g.g.g.g.g.g.g.g.g.g.f.f.f.f.f.f.f.f.f.f.f.f.f.f.f.f.f.f.f.f.f.f.f.f.f.f.f.f.f.f.f.f.f.f.f.f.f.f.f.f.f.f.g.g.g.g.g.g.g.g.g.g.",
"g.g.g.g.g.g.g.g.g.g.g.g.g.g.g.g.g.g.g.g.g.g.g.g.g.g.g.g.g.g.g.g.g.g.g.g.g.g.g.g.g.g.g.g.g.g.g.g.g.g.g.g.g.g.g.g.g.g.g.g.g.g.g.g.",
"g.g.g.g.g.g.g.g.g.g.g.g.g.g.g.g.g.g.g.g.g.g.g.g.g.g.g.g.g.g.g.g.g.g.g.g.g.g.g.g.g.g.g.g.g.g.g.g.g.g.g.g.g.g.g.g.g.g.g.g.g.g.g.g.",
"g.g.g.g.g.g.g.g.g.g.g.g.g.g.g.g.g.g.g.g.g.g.g.g.g.g.g.g.g.g.g.g.g.g.g.g.g.g.g.g.g.g.g.g.g.g.g.g.g.g.g.g.g.g.g.g.g.g.g.g.g.g.g.g.",
"g.g.g.g.g.g.g.g.g.g.g.g.g.g.g.g.g.g.g.g.g.g.g.g.g.g.g.g.g.g.g.g.g.g.g.g.g.g.g.g.g.g.g.g.g.g.g.g.g.g.g.g.g.g.g.g.g.g.g.g.g.g.g.g.",
"g.g.g.g.g.g.g.g.g.g.g.g.g.g.g.g.g.g.g.g.g.g.g.g.g.g.g.g.g.g.g.g.g.g.g.g.g.g.g.g.g.g.g.g.g.g.g.g.g.g.g.g.g.g.g.g.g.g.g.g.g.g.g.g."
};
