/* XPM */
static char *_d04f7a66d424098f13b1bb0e71965f9QVAb7QD4D2JFBkvL[] = {
/* columns rows colors chars-per-pixel */
"64 64 174 2 ",
"   c #040F1F",
".  c #050E22",
"X  c #060D29",
"o  c #080B2C",
"O  c #0B0B34",
"+  c #0E093B",
"@  c #10083E",
"#  c #0F0746",
"$  c #0F0843",
"%  c #110744",
"&  c #100842",
"*  c #13064C",
"=  c #150553",
"-  c #190556",
";  c #170659",
":  c #1A045C",
">  c #1D0464",
",  c #1F0369",
"<  c #200267",
"1  c #21026D",
"2  c #250273",
"3  c #280276",
"4  c #270279",
"5  c #29027C",
"6  c #2C0184",
"7  c #2E0189",
"8  c #300187",
"9  c #32018C",
"0  c #350193",
"q  c #380096",
"w  c #370099",
"e  c #3A009C",
"r  c #3E00A3",
"t  c #3F00A8",
"y  c #4100A6",
"u  c #4400AB",
"i  c #4800AE",
"p  c #4600B1",
"a  c #4A00B4",
"s  c #4E00BA",
"d  c #5100BE",
"f  c #4F01C0",
"g  c #5401C3",
"h  c #5801C6",
"j  c #5602C9",
"k  c #5B01CC",
"l  c #5E01D1",
"z  c #6302D5",
"x  c #6801D7",
"c  c #6702D8",
"v  c #6A02DB",
"b  c #6E03E2",
"n  c #7303E5",
"m  c #7604E8",
"M  c #7C05EC",
"N  c #7F07F0",
"B  c #8105EF",
"V  c #8507F2",
"C  c #8906F6",
"Z  c #8608F2",
"A  c #8508F1",
"S  c #8608F3",
"D  c #8808F4",
"F  c #8808F5",
"G  c #8808F7",
"H  c #8A06F8",
"J  c #8B07F8",
"K  c #8C07F9",
"L  c #8C07F8",
"P  c #8E07F9",
"I  c #8F06F9",
"U  c #8C07F8",
"Y  c #8B08F8",
"T  c #8D08F9",
"R  c #8E08F9",
"E  c #8F08FA",
"W  c #8F09FB",
"Q  c #8D09FA",
"!  c #8D08FA",
"~  c #9109F7",
"^  c #9006F9",
"/  c #9107FA",
"(  c #9207FA",
")  c #9107F9",
"_  c #930AF9",
"`  c #9108FB",
"'  c #9109FB",
"]  c #9109FB",
"[  c #9208FB",
"{  c #9308FB",
"}  c #9208FA",
"|  c #9409F9",
" . c #9509F9",
".. c #950AF9",
"X. c #960AF9",
"o. c #950BFA",
"O. c #970BFA",
"+. c #960BFA",
"@. c #9308FC",
"#. c #9309FC",
"$. c #930AFD",
"%. c #9409FC",
"&. c #940AFD",
"*. c #950AFD",
"=. c #950BFD",
"-. c #960BFE",
";. c #970CFF",
":. c #9309FB",
">. c #9809F9",
",. c #980BFB",
"<. c #9B0AFB",
"1. c #9A0BFB",
"2. c #9B0BFB",
"3. c #9B09FA",
"4. c #9D0BFB",
"5. c #980CFB",
"6. c #990CFB",
"7. c #9A0CFB",
"8. c #9C0BFC",
"9. c #9D0BFC",
"0. c #9E0BFD",
"q. c #9F0BFD",
"w. c #980CFC",
"e. c #9B0CFC",
"r. c #9C0CFD",
"t. c #9D0CFD",
"y. c #9E0CFC",
"u. c #9F0CFC",
"i. c #9F0DFC",
"p. c #9E0CFD",
"a. c #9F0CFD",
"s. c #9F0DFD",
"d. c #9E0CFE",
"f. c #9B0CFC",
"g. c #A00BFD",
"h. c #A00BFE",
"j. c #A00CFC",
"k. c #A10CFC",
"l. c #A00DFC",
"z. c #A10DFC",
"x. c #A00DFD",
"c. c #A20DFD",
"v. c #A30DFD",
"b. c #A10EFD",
"n. c #A20EFD",
"m. c #A30EFD",
"M. c #A00CFE",
"N. c #A00DFE",
"B. c #A20EFE",
"V. c #A30EFE",
"C. c #A20FFE",
"Z. c #A30FFE",
"A. c #A30FFF",
"S. c #A20EFE",
"D. c #A40DFE",
"F. c #A50DFE",
"G. c #A70DFE",
"H. c #A60DFF",
"J. c #A40EFE",
"K. c #A50EFE",
"L. c #A50EFF",
"P. c #A40FFF",
"I. c #A50FFF",
"U. c #A60EFE",
"Y. c #A60FFE",
"T. c #A60EFF",
"R. c #A70EFF",
"E. c #A60FFF",
"W. c #A70FFF",
"Q. c #A10DFD",
"!. c #A80EFF",
"~. c #A90EFF",
"^. c #A80DFE",
"/. c #A710FF",
/* pixels */
"i a s j k k c v v m M M V Z Z C L L L / ~ ,.,.0.t.t.x.x.W.~.~.~.W.W.~.~.~.W.x.x.x.x.x.4.,.o.o.*./ L F Z B M m n b v c k k g d s ",
"i a s j k k c v v m M M B Z Z C T T } } } ,.0.t.t.x.x.x.W.~.~.~.W.W.~.~.~.W.x.x.W.x.x.t.0.o.o.$.} T F Z V M n n b v c k j g d s ",
"i p s j k k c v v m M M Z Z F L T } $.$.} ,.0.t.t.x.x.x.~.~.~.~.W.~.~.~.~.W.W.W.W.x.x.t.0.6.o.$.} T C Z Z M m n v v c k j g d a ",
"u p s j k l c v b m M B Z C H / } *.*.*.} ,.h.x.x.x.t.x.~.~.~.~.~.~.~.~.~./.W.W.W.W.x.t.0.6.6.$.} T H C Z M M n v c c k j g s p ",
"u p s j k z c v b m M V Z C H } *.*.*.*.o.e.h.x.x.x.x.x.~.~.~.~.~.~.~.~.~./.W.W.W.W.x.x.0.6.6.$.} T C C Z B M n v c c k j d s p ",
"i p s j k z c v v m M B Z C H } *.*.*.;.o.6.t.t.x.x.x.x.W.W.~.~.W.W.W.W.W.W.W.W.W.x.x.x.0.6.e.$.} L C D Z B M n v c c k j d s p ",
"i p s j k z c v v n M M Z C H } *.*.*.*.o.6.t.t.x.x.x.x.x.x.W.W.x.W.W.W.W.x.x.x.x.x.x.t.0.o.o.} T L C D Z B M n v c z k j s s p ",
"i p s j k z c x v n M M V D C / $.*.*.*.o.,.t.t.x.x.x.x.x.x.x.x.x.W.W.W.W.x.x.x.x.x.0.0.,.o.o.} Y F D D Z B M n v c l j d s p i ",
"u p s g k k z z x n m M N Z Z T } } $.*.$.*.e.e.t.h.0.t.x.x.0.x.x.x.x.x.x.x.t.t.t.0.0.e.o.o.$.} C Z V V M M m n v c l j s p i i ",
"t i a g j k z z c b n m M B V C } } $.*.$.*.,.6.0.h.0.4.x.x.0.0.t.0.x.x.x.l.t.t.0.0.0.e.o.} $.L C Z V B M M n n v c l j s p u y ",
"r u p d j k z z z v n m M B V C / / } $.} *.o.6.0.t.t.4.x.t.0.0.e.t.x.t.4.4.4.e.t.t.e.e.o.} } L D V B M M M n b c z k j s i t r ",
"e t i s g k k z z v n n M M B Z L T } } } $.*.o.t.e.6.t.0.t.t.t.e.e.t.t.t.t.,.e.e.e.5.*.$.T L H F B M M M m n b c z k j s i t e ",
"e t u a s g k l l c v n m M M A C L L } / } *.o.,.e.6.f.t.t.0.0.e.,.0.0.0.0.,.6.6.,.o.o.} T T H D B M M m m n b c z k g s i e q ",
"e r y p s g k k k z v b n m M B Z C L } T T $.} *.f.f.,.t.e.e.e.e.e.e.6.e.f.o.*.e.*.o.o.T T T F V M m m m n b v z k k d a i e q ",
"w e y i a s j k k z c v n n m M Z Z C T H T } } $.*.*.o.e.6.6.e.6.6.e.6.o.*.*.*.*.*.$.} H Y C Z B M m m m n b c z k h d a u e q ",
"q e r i a a g j k z z c b n n M B V D C C H T L } $.} } o.o.,.6.,.,.6.6.o.$.$.*.*.$.} } C H C Z B M n n m n v c l k j s a u e q ",
"q e r u p a d g j k z c b n n m M M Z Z Z C H T T } } } $.*.*.*.*.*.f.*.*.} L } $.} } L F D C V M M n n b v v c k k g s p y w 0 ",
"0 q e y i a d g g k l l v v b n M M B Z Z F H Y T T T } $.$.*.*.$.*.*.*.*.} L L } T T L D D D B M M n b b v v z k k g s p y w 0 ",
"9 q w r i a s d d j k k c v v n M M M B B Z C C H C C L } } } } } $.$.$.$.} H C L L C C D D D B M M n b v v c z k k g s i r w 9 ",
"7 0 w r u p s d d g k k z v v v m M M B B V Z F C Z Z H } T T } T } } } } } H D C C Z Z B V V M M m b b v c z k j j d a u e q 9 ",
"6 9 q e y i s s d g j j k z c v n m M M M B Z D C Z Z C T L T } L / / T T L C D D D Z Z M M B M M n b v c c z k j g d a u e q 9 ",
"6 7 0 w t u a s s g j j k z z v b n m M M M B V Z Z V Z L L T T H H L L H H C Z F Z V B M M M M n n v v c z l k g g s p u e q 9 ",
"5 6 7 q r u p a s g g j k k z c v n m m m M M B B V B V C C C H D C H H H Y Z Z V B B M M M M m n b v v c k k k d d a i y w 0 7 ",
"4 6 7 q e y i p p s g j k k k l v b n m m m M M B B B B D F C C D C C C C C Z Z V M B M m m m m n b v c z k k g d s p i y q 9 6 ",
"2 6 7 0 e t i p p s g g j h h k c v n n n m M M M M M M Z Z Z Z V Z Z Z Z Z B M M M M M m n m n n v c z l j j g s s p u r q 7 6 ",
"2 5 6 9 w t i p p s g g j j j k z c v n b n m m M M M M B B B Z B B Z Z Z Z B M M M M M m n n n b v z z k j g d a a i y e 0 6 5 ",
"2 4 6 9 w r i p p s d g j j j j k z c v b b n m M M M M M M B V B B B B V V M M M m m m n b b v v c z z k j g d p p u r w 9 6 4 ",
"2 4 6 9 w e u i p s d g j j j j l l z v v v n n m M M M M M M M B M M M M M M M M m m m b b b v c c k k k j f a p i t e w 7 6 4 ",
"2 2 5 6 0 w y i p s d g j j j j l l z c c v b n n m m M M M M M M M M M M M M M m n n n b b b v c z k k h d s p i i r w 0 6 5 3 ",
"1 2 4 6 0 w t u i p s d g j j j k l z z z c v b n n m n m m M M M M M M M M M m m n b n v v v v z k j j g d s i i y e w 0 6 4 2 ",
"1 2 4 6 9 q r u u p s s g j j j k k z z z c v v n m n n m n m m m m M M M M m m m n b v v v v c z k j j g s a u u y e q 9 5 2 2 ",
"1 2 2 5 9 0 e y u p s s d g j j k k z z z z v v n n n n m n n m n m m m m m n m n n b v c v v c z k g g d s p y r r q 0 9 4 2 1 ",
", 1 2 4 7 0 e t u i s s d g g g j k l z z c c v v b b n n n n m n n m m m n n b b b v v c c c z l k d d s a p t e e q 9 6 4 2 , ",
", 1 2 4 6 9 w r t i p s d g g g j k l z z z c c v b b b n n n m n n n n n n b b b v v c z z z z l j d d a p u r w w 0 9 6 2 1 , ",
"> , 2 2 6 9 q e r u p s d g g g j j k l l z c c v v v v n n n n b b n n n b b v v v v c l z l l k j d s p u t e q q 9 6 5 1 , > ",
"> , , 2 5 8 0 w r t p a s d d g j j k k l z z c c c v v v b n b b b b b b b v v v c z z k k k k k g s s i u r w 0 9 7 6 4 1 , : ",
": > , 2 4 6 9 q e t i a s d d g g j k k l l z c c c c c v b b b b b b b b b v v v x z k k k k j h d s s p y e q 9 7 6 5 2 1 > - ",
"- : , 1 2 5 7 0 q e y p s s s d g g k k k k z z c c c c v v v v v v b b b v v v c c z k h j j g g d a p i t e 0 9 6 5 4 2 , : - ",
"= : > 1 2 4 6 9 q e y i a s s s d g j k k k l z z z z z c v v v v v v v v v v c z z z k j j j g g s a p u r e 9 6 6 4 2 1 > : = ",
"= : > 1 2 4 7 9 q e y i a s s d g j k k k k l z z z z z z z c c z c c c c c c c z z l k j j j g g s p i y e q 9 6 4 2 1 < : ; = ",
"= : , 1 2 5 6 9 q e t i a s s g g j k k k l z z c c c c c c v v c c c v v c z z z l k k j d d d s a i i t e q 7 6 4 1 1 > - = * ",
"= : , 1 2 5 6 9 q e t i a s s g g k k k k l z c c c c c c c v v c c c v v c c z z l k j g d d s s p u y r w 0 6 5 2 , > : = * % ",
"= : , 1 2 5 6 9 q e r i p s s d g k k k k l z c c c c c v v v v c c c v v c c z z z k j g d d s s i u y e q 9 6 4 2 , : ; * * & ",
"= - > 1 2 4 6 9 0 w r u p a s d g j k k k l z c c c c x v v v v c c c c v c z z z z z k g g d s s p u u r w 0 6 4 2 , - = # & @ ",
"= - > 1 2 4 6 9 0 w r u p a s g g j k k k l z c c c c x v v v v c c c c c c z z z z z k g g s s s p u u r w 0 6 4 2 , - * $ @ + ",
"= : > , 1 2 6 6 9 w e y p a s d g h k k k k z c c c c v v v v v c c c c c c z z z z l j j g s s s p u u r w 0 6 4 2 , : * $ @ O ",
"= : > , 1 2 6 6 9 0 w y p s s s g h k k k k l c c c c c v v v v c z z c c z z z z z l j j g d s a i u y r w 0 6 5 2 , : * $ @ O ",
"= : > , 1 2 6 6 7 0 w y p a s s g h k k k k l c c c c c v v v v c c z c c z l z z z l j g g d a a p u y e w 0 6 5 2 , : * $ @ O ",
"= : > 1 1 2 5 6 7 0 w t i p s s d j k k k k l z c c c c v v v v c c z z z z z z z l k h g g d s a p u y e q 9 6 5 2 , : * % & O ",
"= : > , 2 4 5 6 6 9 q r i p s s d j k k k k k z z c c c c v v v c c z z z z z l l k k h g g s a p u u y e q 9 6 5 2 , : * % & O ",
"= - > , 1 4 5 6 6 9 0 e y i p s s g k k k k k z z c c c c v v v c z z z z l l k k k k j g g s a i u y r w q 9 6 5 2 , : * % & O ",
"* = : , , 2 5 5 6 6 9 w y i i a a d j j k k k k z z z l z z c c z l z l l k k k k k j g d s a p u y r e w 0 6 5 4 2 , - * % + O ",
"* = - > > 2 3 4 6 6 6 0 r y u p p s d d j j j k k k k k z z z z z z z l k k k j j j j d s s p i y r e w q 9 6 4 2 1 > - % & + o ",
"% * = : > 1 2 4 5 6 5 7 q e t u u p s d g g g j j k k k k k l l k k k k k h j g g g g s a a i i r e w q 0 9 5 2 2 , > = % + O o ",
"& % = - : , 2 4 5 5 6 7 0 w r y u p s d d d g j j k k k k k k k k k k k j g g g d d d a p p u y e q q 0 9 6 4 1 1 > : = $ O O o ",
"+ & * - : , 2 4 5 5 6 7 0 q e y u p s s d d g j j k k k k k k k k k k k j g g g g d s p i i y r w 0 0 9 6 5 2 , , > - * + O o . ",
"+ & * = - > 1 2 4 5 5 6 9 0 q e r i p a s s s g g g j j j k k k k k k k j g g g g g s p p i u y e q 0 9 6 6 2 1 , > - * + O o . ",
"O @ % * = : , 1 2 3 3 5 6 9 0 q e y i p a a s g g g j j j k k k k k k k k g g g g g d a a p i y r q 0 9 7 6 2 1 , > - * + O o . ",
"o O + % * ; > > 2 2 2 5 6 9 0 q w r u i p a s g g g g j j k k k k k k k j g g g g g d a p p i u r q 0 9 7 6 2 1 , > - = & O o . ",
"o o + & * = > , 1 2 4 5 6 7 0 q q e y u i p a s s s g g g j j j j j j j j d d g d g s a i u u t e q 0 9 7 6 4 2 , > - * & + o . ",
"o o + & * = : > 1 1 2 4 6 6 9 0 q w r t u u p s d s s d d g g g j g g j g d s s d d s p i y y r w 0 9 8 6 5 2 1 , : - = & + o . ",
"o O + & * = : > , 1 1 3 4 6 9 0 0 w e r y u i a s s s s d g d g g g d g g s s s s s s p i y r e q 0 9 6 6 4 2 , > : - * + O o . ",
". o O @ % = : > , 1 1 2 4 5 6 9 0 q w w r t u p a a a s s d d d d d s d d s a a a a p p u y e w q 0 9 6 5 4 1 , > - = * + O X . ",
". X O + & * - > , 1 1 2 4 4 6 9 9 0 q q e r t i p p p p a s d d s s s s s a p i p p i i y r w q 0 9 6 5 4 3 1 , : - * % + O X   "
};
