/* XPM */
static char *result[] = {
/* columns rows colors chars-per-pixel */
"64 64 181 2 ",
"   c #050105",
".  c #0B020C",
"X  c #0C0D0D",
"o  c #070108",
"O  c #0F100F",
"+  c #0F0310",
"@  c #120314",
"#  c #140C15",
"$  c #160418",
"%  c #1A041C",
"&  c #170A19",
"*  c #1A0A1C",
"=  c #0F1110",
"-  c #121413",
";  c #161817",
":  c #1C131E",
">  c #171A19",
",  c #1A1C1C",
"<  c #171219",
"1  c #281F17",
"2  c #1D201F",
"3  c #20201D",
"4  c #1E0421",
"5  c #1E0B20",
"6  c #1E1221",
"7  c #1F1B21",
"8  c #220425",
"9  c #230B24",
"0  c #260429",
"q  c #2A052D",
"w  c #260B29",
"e  c #2A0A2D",
"r  c #221323",
"t  c #271329",
"y  c #2A112B",
"u  c #281926",
"i  c #321C2F",
"p  c #2E0532",
"a  c #2E0B31",
"s  c #320636",
"d  c #320C35",
"f  c #350939",
"g  c #390D3D",
"h  c #2E1231",
"j  c #2E1B30",
"k  c #321335",
"l  c #321934",
"z  c #36143A",
"x  c #39153C",
"c  c #3B1B3E",
"v  c #1E2220",
"b  c #222524",
"n  c #242827",
"m  c #262A29",
"M  c #2A2D2C",
"N  c #2A252B",
"B  c #372B2D",
"V  c #2C312F",
"C  c #32302B",
"Z  c #362E36",
"A  c #2D3331",
"S  c #313534",
"D  c #323936",
"F  c #343638",
"G  c #3A323B",
"H  c #363C3A",
"J  c #393D3C",
"K  c #492F3F",
"L  c #473838",
"P  c #3A413E",
"I  c #4B473B",
"U  c #3E1242",
"Y  c #3E1C42",
"T  c #3E2241",
"R  c #411545",
"E  c #461B4A",
"W  c #4A1E4E",
"Q  c #421C46",
"!  c #4C1F50",
"~  c #432945",
"^  c #442946",
"/  c #4C364F",
"(  c #473449",
")  c #4E2052",
"_  c #523B54",
"`  c #3D4542",
"'  c #3F4845",
"]  c #414946",
"[  c #444D4A",
"{  c #4B4948",
"}  c #574E41",
"|  c #47514D",
" . c #48524E",
".. c #5E5342",
"X. c #555044",
"o. c #58465A",
"O. c #4B5551",
"+. c #4E5854",
"@. c #505A56",
"#. c #545E5A",
"$. c #5D5B5A",
"%. c #535354",
"&. c #604847",
"*. c #625C4B",
"=. c #6C5E4C",
"-. c #615B56",
";. c #735D5C",
":. c #56605C",
">. c #6B6249",
",. c #7E745B",
"<. c #5E4D60",
"1. c #604D62",
"2. c #635264",
"3. c #625C63",
"4. c #6D6B6B",
"5. c #6E6070",
"6. c #716072",
"7. c #7D7D7D",
"8. c #907946",
"9. c #806F5C",
"0. c #84745B",
"q. c #806D6B",
"w. c #847A63",
"e. c #887776",
"r. c #8F8061",
"t. c #968A6C",
"y. c #A1916E",
"u. c #AD9E79",
"i. c #B09A72",
"p. c #B6A57C",
"a. c #D4B56D",
"s. c #838383",
"d. c #8E8E8E",
"f. c #9B958C",
"g. c #979388",
"h. c #939393",
"j. c #9A9A99",
"k. c #989299",
"l. c #A99E9D",
"z. c #AFA68F",
"x. c #B6AA8E",
"c. c #B8AA89",
"v. c #AEA693",
"b. c #B0A998",
"n. c #A19CA1",
"m. c #A4A3A4",
"M. c #ACACAC",
"N. c #A8A7A8",
"B. c #B2ADAC",
"V. c #B4B3B4",
"C. c #BABABA",
"Z. c #B8B8B6",
"A. c #C0AE82",
"S. c #CBB889",
"D. c #D2BE8F",
"F. c #CAB990",
"G. c #C0BFBF",
"H. c #D9C79A",
"J. c #E5CF9B",
"K. c #D2C8AF",
"L. c #EED8A2",
"P. c #F4DEA6",
"I. c #FDE5AB",
"U. c #FFE9AE",
"Y. c #FFECB0",
"T. c #BFBBC0",
"R. c #C2BFC2",
"E. c #C3C3C3",
"W. c #CCCCCB",
"Q. c #CEC5C5",
"!. c #CFD0CE",
"~. c #D3D3D3",
"^. c #DCDCDC",
"/. c #DFDFE0",
"(. c #E5E5E5",
"). c #EDEDED",
"_. c #E8E7E7",
"`. c #EFF0F1",
"'. c #F3F3F3",
"]. c #FDFDFD",
"[. c None",
/* pixels */
"[.[.[.[.[.[.[.[.[.[.[.[.[.[.[.[.[.[.[.[.[.[.[.[.[.[.[.[.[.[.[.[.[.[.[.[.[.[.[.[.[.[.[.[.[.[.[.[.[.[.[.[.[.[.[.[.[.[.[.[.[.[.[.[.",
"[.[.[.[.[.[.[.[.[.[.[.[.[.[.[.[.[.[.[.[.[.[.o o   [.[.[.[.[.[.[.[.[.[.[.[.[.[.[.[.[.[.[.[.[.[.[.[.[.[.[.[.[.[.[.[.[.[.[.[.[.[.[.",
"[.[.[.[.[.[.[.[.[.[.[.[.& 9 y k k h e 9 5 % % $ % $ % % % % % $ @ @ . [.[.[.[.[.[.[.[.[.[.[.[.[.[.[.[.[.[.[.[.[.[.[.[.[.[.[.[.[.",
"[.[.[.[.[.[.[.[.[.* h c Q U g a 9 9 w q p p p f s s f f s s s s s s 0 . [.[.[.[.[.[.[.[.[.[.[.[.[.[.[.[.[.[.[.[.[.[.[.[.[.[.[.[.",
"[.[.[.[.[.[.[.* z E U g f 0 9 e s s s f s s s s s s s s s s s s s s p . [.[.[.[.[.[.[.[.[.[.[.[.[.[.[.[.[.[.[.[.[.[.[.[.[.[.[.[.",
"[.[.[.[.[.[.t E E g s f 8 w x f s f s s s s s s s s s s s s a p p q 4 o [.[.[.[.[.[.[.[.[.[.[.[.[.[.[.[.[.[.[.[.[.[.[.[.[.[.[.[.",
"[.[.[.[.[.y W R f s s 0 w U s s s s s s s s s s s s s s 0 0 0 0 0 0 . [.[.[.[.[.[.[.[.[.[.[.[.[.[.[.[.[.[.[.[.[.[.[.[.[.[.[.[.[.",
"[.[.[.[.* W E f s s p 5 U f s s s s s s s s s s s s s q 0 0 0 0 0 % o [.[.[.[.[.[.[.[.[.[.[.[.[.[.[.[.[.[.[.[.[.[.[.[.[.[.[.[.[.",
"[.[.[.o c W g s s s 0 y U s s s s s s s s s s s s s s 0 0 0 0 0 0 % [.[.[.[.[.[.[.[.[.[.[.[.[.[.[.[.[.[.[.[.[.[.[.[.[.[.[.[.[.[.",
"[.[.[.* W R s s s s 4 z g s s s s s s s s s s s s s s q 0 8 0 0 0 8 o [.[.[.[.[.[.[.[.[.[.[.[.[.[.[.[.[.[.[.[.[.[.[.[.[.[.[.[.[.",
"[.[.[.y ! f s s s s 4 x s s s s s s s s s s s s s s s s q 0 0 0 0 8 . [.[.[.[.[.[.[.[.[.[.[.[.[.[.[.[.[.[.[.[.[.[.[.[.[.[.[.[.[.",
"[.[.[.z E f s p s s 4 x s s s s s p p p s s s s s s f s s p q 0 0 0 @ [.[.[.[.[.[.[.[.[.[.[.[.[.[.[.[.[.[.[.[.[.[.[.[.[.[.[.[.[.",
"[.[.[.c U p a f d z w ~ Y Y ~ ( ( _ o.<.o.c q p q q 0 0 8 0 8 % % % #   [.[.[.[.[.[.[.[.[.[.[.[.[.[.[.[.[.[.[.[.[.[.[.[.[.[.[.[.",
"[.[.o l 5.k.n.N.B.V.C.R.W.~.^.^./.^.~.C.~.j.j a h k l z x c c Y Q Q E y [.[.[.[.[.[.[.[.[.[.[.[.[.[.[.[.[.[.[.[.[.[.[.[.[.[.[.[.",
"[.[.@ { N.M.].].]._.'.].).].].].]._.W.7.W.E._ ! ) ) ) ) ) ) ) ) ) ) ) h [.[.[.[.[.[.[.[.[.[.[.[.[.[.[.[.[.[.[.[.[.[.[.[.[.[.[.[.",
"[.[.4 <.C.C.].].'._._.].).).'.`.].)._.(./.E.o.! ) ) ) ) ) ) ) ) ) ) ) z [.[.[.[.[.[.[.[.[.[.[.[.[.[.[.[.[.[.[.[.[.[.[.[.[.[.[.[.",
"[.[.* o.~.`.].]./.W.G.!.W.G.~.`.].]._._.(.W.o.) ! ! ! ! ! ! ) W W W ! z [.[.[.[.[.[.[.[.[.[.[.[.[.[.[.[.[.[.[.[.[.[.[.[.[.[.[.[.",
"[.[.& / ~.).'.].].`.!.C.E./.`.].].].).^.^.W.<.U R U U U g g g f d f f 8 o [.[.[.[.[.[.[.[.[.[.[.[.[.[.[.[.[.[.[.[.[.[.[.[.[.[.[.",
"[.[.@ T C.C._.].].].'.(.`.'.).].].].'.s.M.~.%.4 4 4 4 % % % % % % % % @ o [.[.[.[.[.[.[.[.[.[.[.[.[.[.[.[.[.[.[.[.[.[.[.[.[.[.[.",
"[.[.  r h.7.^.'.].'.`.^.^.(.^.^.^.^.~.M.M.d.N + % q p p q 0 8 0 p s s s 8 . [.[.[.[.[.[.[.[.[.[.[.[.[.[.[.[.[.[.[.[.[.[.[.[.[.[.",
"[.[.[.@ ( 7.s.7.f.b.b.z.z.x.x.x.x.t.I P J S C b + @ p s s s q q s s s s p 8 . [.[.[.[.[.[.[.[.[.[.[.[.[.[.[.[.[.[.[.[.[.[.[.[.[.",
"[.[.[.% 4 > C M I p.I.I.I.I.I.I.y.L A C M m , 3 I =.u p s s s s s s s s s q % [.[.[.[.[.[.[.[.[.[.[.[.[.[.[.[.[.[.[.[.[.[.[.[.[.",
"[.[.[.@ & 3 b N M X.L.U.U.U.I.I.,.m m 2 2 ( 4.w.J.U.X.q s s s s s s s s p 0 4 . [.[.[.[.[.[.[.[.[.[.[.[.[.[.[.[.[.[.[.[.[.[.[.[.",
"[.[.[.. # $.4.{ 7 X.P.L.H.H.P.U.A.n C L L W.].Z.u.U.X.4 s s s s s s s s q 0 4 o [.[.[.[.[.[.[.[.[.[.[.[.[.[.[.[.[.[.[.[.[.[.[.[.",
"[.[.[.o . -.e.~.f.t.y.L i i L 0.A.p.F.f.&.;.Q.E.w.a.t p s s s s s s s q 0 0 @ [.[.[.[.[.[.[.[.[.[.[.[.[.[.[.[.[.[.[.[.[.[.[.[.[.",
"[.[.[.[.  $.q.B.K.r.9 q s s s 0 i =.p.g.M.l.Z.$...B q s s s s s s p q 0 0 % o [.[.[.[.[.[.[.[.[.[.[.[.[.[.[.[.[.[.[.[.[.[.[.[.[.",
"[.[.[.[.o u s.g.*.9 s s s s s s s 0 u L C Z : # 4 p s p p q q 4 8 8 % % @ [.[.[.[.[.[.[.[.[.[.[.[.[.[.[.[.[.[.[.[.[.[.[.[.[.[.[.",
"[.[.[.[.[.+ @ * 8 s s s s s s s s s p 0 0 0 0 q p q q q q 4 4 # . o + o [.[.[.[.[.[.[.[.[.[.[.[.[.[.[.[.[.[.[.[.[.[.[.[.[.[.[.[.",
"[.[.[.[.[.[.@ % 0 q q q q q q q q 0 0 0 0 0 8 8 4 4 < 6 6 7 2 2 # 8 q 8 e f d k 9 [.[.[.[.[.[.[.[.[.[.[.[.[.[.[.[.[.[.[.[.[.[.[.",
"[.[.[.[.[.[.[.[.+ $ % % % % $ % $ @ @ @ + + . 7 7 v T ' ' A A ` : s p a s s s f g d 9 . [.$ [.[.[.[.[.[.[.[.[.[.[.[.[.[.[.[.[.[.",
"[.[.[.[.[.[.[.[.[.[.[.[.[.[.[.[.[.[.[.[.[.[.[.M v 6 ' ` D v ` P : q p p s s s s s s 0 h x s 9 3 [.[.[.[.[.[.[.[.[.[.[.[.[.[.[.[.",
"[.[.[.[.[.[.[.[.[.[.[.[.[.[.[.[.[.[.[.[.[.[.8 * 7 4 v +.M.V.M.V.$.4 s q p s s s s q i ) U K i.a.8.[.[.[.[.[.[.[.[.[.[.[.[.[.[.[.",
"[.[.[.[.[.[.[.[.[.[.[.[.[.[.[.[.[.[.[.[.[.[.w q @ 4 # P V.!.C.d.T 2 0 q 0 0 8 4 0 8 x ! K D.Y.S.>.P ] m [.[.[.[.[.[.[.[.[.[.[.[.",
"[.[.[.[.[.[.[.[.[.[.[.[.[.[.[.[.[.[.[.[.[.[.% z * n V n m [ P v P [ V v 6 & < O . @ w x ,.U.S.{ [ O.| P - [.[.[.[.[.[.[.[.[.[.[.",
"[.[.[.[.[.[.[.[.[.[.[.[.[.[.[.[.[.[.[.[.[.[.[.& > A m P ' | P m P [ O.' ' P A m [.[.[.$ =.D.*.' O.P b 2 m P V > [.[.[.[.[.[.[.[.",
"[.[.[.[.[.[.[.[.[.[.[.[.[.[.[.[.[.[.[.[.[.[.[.[.v 7 V | A P ' m M P O.| O.[ H S ; [.[.[.[.[.b J D n V P P P P A - [.[.[.[.[.[.[.",
"[.[.[.[.[.[.[.[.[.[.[.[.[.[.[.[.[.[.[.[.[.[.[.[.m n v P P P ' P m ` [  . . .` A n [.[.[.[.[.[.v - S ' P P P P P V = [.[.[.[.[.[.",
"[.[.[.[.[.[.[.[.[.[.[.[.[.[.[.[.[.[.[.[.[.[.[.[., M 2 V  .'  .' m M ` O. . .[ H A - [.[.[.[.[.[.2 3 P P P P P P P 2 [.[.[.[.[.[.",
"[.[.[.[.[.[.[.[.[.[.[.[.[.[.[.[.[.[.[.[.[.[.[.[.[.m v n '  . .' A V ' [  . .O.P M - [.[.[.[.[.[.M A 2 P P P P M 2 X [.[.[.[.[.[.",
"[.[.[.[.[.[.[.[.[.[.[.[.[.[.[.[.[.[.[.[.[.[.[.[.[.2 M v A P A n n A D '  .' S 7 & @   2 [.[.[.[.X > ; 2 m 2 2 X = [.[.[.[.[.[.[.",
"[.[.[.[.[.[.[.[.[.[.[.[.[.[.[.[.[.[.[.[.[.[.[.[.[.[.v , A m A P P ` ` D n 6 8 0 0 8 + D S [.[.[.[., n V V - - [.[.[.[.[.[.[.[.[.",
"[.[.[.[.[.[.[.[.[.[.[.[.[.[.[.[.[.[.[.[.[.[.[.[.[.[.[.[.m P T J A b 6 4 q p s s s s e 6 v [.[.[.[.[.X S D = [.[.[.[.[.[.[.[.[.[.",
"[.[.[.[.[.[.[.[.[.[.[.[.[.[.[.[.[.[.[.[.[.[.[.[.[.[.[.[.< , r 5 8 p p p p q p s s s s 0 . [.[.[.[.[.[.= X [.[.[.[.[.[.[.[.[.[.[.",
"[.[.[.[.[.[.[.[.[.[.[.[.[.[.[.[.[.[.[.[.[.[.[.[.[.[.[.G e + 0 s p q q q 8 8 p s s s s s % [.[.[.[.[.[.[.[.[.[.[.[.[.[.[.[.[.[.[.",
"[.[.[.[.[.[.[.[.[.[.[.[.[.[.[.[.[.[.[.[.[.[.[.[.[.[.{ !.C.3.* % 0 8 4 $ . + 8 p s s s s p @ [.[.[.[.[.[.[.[.[.[.[.[.[.[.[.[.[.[.",
"[.[.[.[.[.[.[.[.[.[.[.[.[.[.[.[.[.[.[.[.[.[.[.[.[.J j.h.m.^.M.G . . o [.[.[.. 8 p s s s f 8 [.[.[.[.[.[.[.[.[.[.[.[.[.[.[.[.[.[.",
"[.[.[.[.[.[.[.[.[.[.[.[.[.[.[.[.[.[.[.[.[.[.[.[.. l 6.N.C.d.m.V.Z [.[.[.[.[.[.. 4 q s s s s $ [.[.[.[.[.[.[.[.[.[.[.[.[.[.[.[.[.",
"[.[.[.[.[.[.[.[.[.[.[.[.[.[.[.[.[.[.[.[.[.[.[.[.% s s d 2.R.h.[ [.[.[.[.[.[.[.[.. 4 q s s s p q [.[.[.[.[.[.[.[.[.[.[.[.[.[.[.[.",
"[.[.[.[.[.[.[.[.[.[.[.[.[.[.[.[.[.[.[.[.[.[.[.[.q s s s p ^ %.[.[.[.[.[.[.[.[.[.[.. 0 s s s s w M v [.[.[.[.[.[.[.[.[.[.[.[.[.[.",
"[.[.[.[.[.[.[.[.[.[.[.[.[.[.[.[.[.[.[.[.[.[.[.[.8 q s s s p 4 [.[.[.[.[.[.[.[.[.[.[.p s s p w S [ J b [.[.[.[.[.[.[.[.[.[.[.[.[.",
"[.[.[.[.[.[.[.[.[.[.[.[.[.[.[.[.[.[.[.[.[.[.[.[.4 s s s s p 0 , [.[.[.[.[.[.[.[.[.[.8 s q u P  . .[ M X [.[.[.[.[.[.[.[.[.[.[.[.",
"[.[.[.[.[.[.[.[.[.[.[.[.[.[.[.[.[.[.[.[.[.[.[.[.4 s s q e N P H ; [.[.[.[.[.[.[.[.[.. r F [  . . .D v - [.[.[.[.[.[.[.[.[.[.[.[.",
"[.[.[.[.[.[.[.[.[.[.[.[.[.[.[.[.[.[.[.[.[.[.[.[.+ t N H ]  .O.] m [.[.[.[.[.[.[.[.[.[.n [  . .[ A M P V v = [.[.[.[.[.[.[.[.[.[.",
"[.[.[.[.[.[.[.[.[.[.[.[.[.[.[.[.[.[.[.[.[.[.[.[.; '  . . .O.[ J v [.[.[.[.[.[.[.[.[.[.[.n ` D m H  .[ ' | P n = [.[.[.[.[.[.[.[.",
"[.[.[.[.[.[.[.[.[.[.[.[.[.[.[.[.[.[.[.[.[.[.[.[.[.A  . .] H b > - [.[.[.[.[.[.[.[.[.[.[.[.- X m `  .[  . . .' m X [.[.[.[.[.[.[.",
"[.[.[.[.[.[.[.[.[.[.[.[.[.[.[.[.[.[.[.[.[.[.[.[.[.; m v , m D ` ` J , [.[.[.[.[.[.[.[.[.[.[.J [ '  . . . .' A > [.[.[.[.[.[.[.[.",
"[.[.[.[.[.[.[.[.[.[.[.[.[.[.[.[.[.[.[.[.[.[.[.[.[.[.; M [ O.O. . .O.' , [.[.[.[.[.[.[.[.[.J +.O.O. . .' P M - [.[.[.[.[.[.[.[.[.",
"[.[.[.[.[.[.[.[.[.[.[.[.[.[.[.[.[.[.[.[.[.[.[.[.P  .+.+.O. . . . . . .P - [.[.[.[.[.[.[.' @.:.+. . .] D v [.[.[.[.[.[.[.[.[.[.[.",
"[.[.[.[.[.[.[.[.[.[.[.[.[.[.[.[.[.[.[.[.[.[.> [ #.:.:.@. . . . . . . .' m [.[.[.[.[.[.M #.:.#.+. .[ S , [.[.[.[.[.[.[.[.[.[.[.[.",
"[.[.[.[.[.[.[.[.[.[.[.[.[.[.[.[.[.[.[.[.[.[.P :.:.#.@. . . .[ P P J A n , [.[.[.[.[.[.J :.:.@.O.] V - [.[.[.[.[.[.[.[.[.[.[.[.[.",
"[.[.[.[.[.[.[.[.[.[.[.[.[.[.[.[.[.[.[.[.[.,  .+.@.+. .[ ' D M b , - [.[.[.[.[.[.[.[.[.J @.+.O.' m X [.[.[.[.[.[.[.[.[.[.[.[.[.[.",
"[.[.[.[.[.[.[.[.[.[.[.[.[.[.[.[.[.[.[.[.[.2  .| ] J V b > - [.[.[.[.[.[.[.[.[.[.[.[.[.M O. .` 2 [.[.[.[.[.[.[.[.[.[.[.[.[.[.[.[.",
"[.[.[.[.[.[.[.[.[.[.[.[.[.[.[.[.[.[.[.[.[.- V b > = [.[.[.[.[.[.[.[.[.[.[.[.[.[.[.[.[.[.D J ; [.[.[.[.[.[.[.[.[.[.[.[.[.[.[.[.[.",
"[.[.[.[.[.[.[.[.[.[.[.[.[.[.[.[.[.[.[.[.[.[.[.[.[.[.[.[.[.[.[.[.[.[.[.[.[.[.[.[.[.[.[.[.[.= [.[.[.[.[.[.[.[.[.[.[.[.[.[.[.[.[.[."
};
