/* XPM */
static char *_043306e029a4c9f9253fcad17b3bbb7KLXli5TgzOZ2edpg[] = {
/* columns rows colors chars-per-pixel */
"64 64 188 2 ",
"   c None",
".  c #050106",
"X  c #070008",
"o  c #0C020C",
"O  c #0C0D0D",
"+  c #0E100F",
"@  c #0F0310",
"#  c #0F0E11",
"$  c #130314",
"%  c #150D15",
"&  c #160418",
"*  c #1A041C",
"=  c #170A19",
"-  c #1A0B1C",
";  c #0F1111",
":  c #121413",
">  c #161817",
",  c #1B141D",
"<  c #171A19",
"1  c #1A1C1C",
"2  c #171219",
"3  c #291F14",
"4  c #1D201F",
"5  c #21201D",
"6  c #1E0421",
"7  c #1E0B20",
"8  c #1E1221",
"9  c #1F1B21",
"0  c #220425",
"q  c #230B24",
"w  c #260529",
"e  c #2A052D",
"r  c #260B29",
"t  c #2A0A2D",
"y  c #231223",
"u  c #221A24",
"i  c #271329",
"p  c #29112B",
"a  c #2B1827",
"s  c #331C2F",
"d  c #2E0532",
"f  c #2E0B31",
"g  c #320636",
"h  c #320C35",
"j  c #350939",
"k  c #390D3D",
"l  c #340738",
"z  c #2E1231",
"x  c #2E1B30",
"c  c #321335",
"v  c #311933",
"b  c #361539",
"n  c #39143D",
"m  c #3B1C3E",
"M  c #1E2221",
"N  c #222423",
"B  c #242927",
"V  c #262A29",
"C  c #2A2D2C",
"Z  c #2A252A",
"A  c #372A2C",
"S  c #2B312F",
"D  c #33312B",
"F  c #362E36",
"G  c #2D3331",
"H  c #313534",
"J  c #323936",
"K  c #343638",
"L  c #363D3A",
"P  c #3A3D3C",
"I  c #3A323B",
"U  c #473739",
"Y  c #39413E",
"T  c #4B473A",
"R  c #3E1242",
"E  c #3E1C41",
"W  c #3F2241",
"Q  c #411545",
"!  c #461B4A",
"~  c #4A1D4E",
"^  c #421D46",
"/  c #4C1F50",
"(  c #432945",
")  c #442947",
"_  c #4B354D",
"`  c #4E2052",
"'  c #513B54",
"]  c #3D4542",
"[  c #3F4845",
"{  c #444340",
"}  c #414A46",
"|  c #4B454B",
" . c #444D4A",
".. c gray29",
"X. c #4C4E43",
"o. c #584F40",
"O. c #47514D",
"+. c #48524E",
"@. c #5E5241",
"#. c #565044",
"$. c #58475A",
"%. c #4B5551",
"&. c #4E5854",
"*. c #545355",
"=. c #505A56",
"-. c #545E5A",
";. c #5F5B5C",
":. c #5B5B57",
">. c #625B4A",
",. c #6C5C4C",
"<. c #635B56",
"1. c #6C5252",
"2. c #56605C",
"3. c #6C6148",
"4. c #7E745A",
"5. c #5F4D61",
"6. c #604E61",
"7. c #635664",
"8. c #705F72",
"9. c #716B6B",
"0. c #6F6070",
"q. c #7B7B7B",
"w. c #6C6C6B",
"e. c #92793F",
"r. c #816F5C",
"t. c #84745B",
"y. c #847B63",
"u. c #857B7B",
"i. c #836C6C",
"p. c #8F8060",
"a. c #968A6B",
"s. c #A1916E",
"d. c #B29A6E",
"f. c #AD9E78",
"g. c #B6A57C",
"h. c #D6B568",
"j. c #838282",
"k. c #8E8E8E",
"l. c #928F8C",
"z. c #9B9587",
"x. c #949394",
"c. c #999799",
"v. c #A2948F",
"b. c #AB9E9D",
"n. c #AFA68E",
"m. c #B7AA8A",
"M. c #AEA692",
"N. c #B0A998",
"B. c #A19CA2",
"V. c #ACACAC",
"C. c #A6A4A6",
"Z. c #B6ABAB",
"A. c #B3B3B3",
"S. c #BBBABA",
"D. c #B8B8B6",
"F. c #C0AE82",
"G. c #CBB889",
"H. c #D2BE8E",
"J. c #CBBA90",
"K. c #DAC799",
"L. c #E5CF9B",
"P. c #D1C7AE",
"I. c #EED8A2",
"U. c #F5DEA5",
"Y. c #FDE5AB",
"T. c #FFE9AF",
"R. c #FFECB0",
"E. c #C2BDC2",
"W. c #C1C2C1",
"Q. c #C5C4C5",
"!. c #CCCBCB",
"~. c #CFD0CF",
"^. c #D1D1D1",
"/. c #D4D4D4",
"(. c #DEDEDE",
"). c #DADADA",
"_. c #D1C5C5",
"`. c #DFDFE0",
"'. c #E5E5E5",
"]. c #E9E9E9",
"[. c #EEEEEE",
"{. c #EEEEEE",
"}. c #EFF0F1",
"|. c #F2F2F2",
" X c #F5F5F6",
".X c #FAFAFA",
"XX c #FFFFFF",
"oX c #FDFDFD",
/* pixels */
"                                                                                                                                ",
"                                                                              . . X                                             ",
"                                                          o $ $ & & * * * * & & & & & - q p z c c p q -                         ",
"                                                        o w g g g g g g g g g g g g d e e w q q f k Q Q n z -                   ",
"                                                        o d g g g g g g g g g g g g g g g g g h t q w l k Q ! b -               ",
"                                                        . 6 e d d d g g g g g g g g g g g g g g j n r 0 g g k ! ! i             ",
"                                                          $ w w w w w e g g g g g g g g g g g g g g R r w g g j Q ~ p           ",
"                                                          . 6 w w w w w e g g g g g g g g g g g g g j R 7 d g g j ! ~ -         ",
"                                                            & w w w w w w g g g g g g g g g g g g g g R p w g g g k / n o       ",
"                                                          . 6 w w w w w e g g g g g g g g g g g g g g j n 6 g g g g Q ~ -       ",
"                                                          o 0 w w w w e g g g g g g g g g g g g g g g j n 6 g g g g k / p       ",
"                                                          $ w w w w d g g g g g g g g d d d d g g g g g n 6 g g g g j ~ c       ",
"                                                        X $ * * * 6 w w w w e e e e m $.5.$.' _ ) ( W E ( i c h h f d R n       ",
"                                                        p ! ^ ^ E E m n b c c c z x c.~.D./.(.(.(.).^.!.Q.S.A.V.C.B.c.0.v .     ",
"                                                        z ` ` ` ` ` ` ` ` ` ` ` / ' W.^.q.!.]..XXXXXXX[..X|.]..XXXXXV.C.| $     ",
"                                                        c ` ` ` ` ` ` ` ` ` ` ` ~ $.Q.'.'.'.[..X[.|.[.[..X].'.|..XXXS.D.6.-     ",
"                                                        b / ~ / / / / ` ` ` ` ` ~ $.!.'.'.]..XXX|./.W.!.^.W.Q.(..XXX|.).$.-     ",
"                                                      . w h h j j k k k R R R Q R 6.!.(.).[.XXXXXX|.(.W.S.^.|.XXXX X].^._ $     ",
"                                                      . $ * * & & & & * * 6 6 0 * *.^.V.j. XXXXXXX[..X[.'. XXXXXXX'.S.S.( $     ",
"                                                    o 0 g g g d w w w e d d e * @ Z k.V.V.^.).(.).).'.).`.}. X.X X/.j.x.y .     ",
"                                                  o 0 d g g g g e e g g g d $ O N S H P P { a.m.m.m.n.n.M.M.N.z.u.j.q._ $       ",
"                                                  * w g g g g g g g g g g a 3.T N 1 B C H H U a.Y.Y.Y.Y.Y.U.g.T C C > 6 &       ",
"                                                o 0 w d g g g g g g g g w T Y.L.y.w.{ 1 N Z Z 4.Y.T.T.T.T.I.#.C Z N 5 $ $       ",
"                                                . 6 w e g g g g g g g g w @.Y.f.D.XX!.U U D N F.R.U.K.K.I.U.o.N ..9.<.% o       ",
"                                                  $ w w e g g g g g g g d a m.y.Q._.1.@.v.J.g.F.t.U s s U s.a.z./.u.<.o .       ",
"                                                  . & w w e d d d g g g g e A @.:.S.b.Z.z.g.,.a w d g g d q p.P.Z.i.;.o         ",
"                                                      $ * 6 0 0 w w e d g g d q $ , F D A p e g g g g g g d y >.l.j.u X         ",
"                                                        . o o o & 6 0 w w e e d e w 0 w d g g g g g g g g g d q - $ o           ",
"                                              q c h h t 0 d 0 % 1 1 u , - * * 6 0 0 w w w w e e e e e e e e e w 6 $             ",
"                                    $   o 0 f n j g g g d d g , ] H G } ] L M < 1 o o @ $ $ $ $ & & & & & & $ o                 ",
"                                3 q d n z w g g g g g g g d e , P P B J Y  .< V V                                               ",
"                              e.h.d.U R ` z e g g g g d e g 0 ;.A.V.A.A.*.N 6 2 8 0                                             ",
"                        V ] Y 3.G.R.H.U / n 0 w 0 w w w e w , P k.S.^.A.P $ 0 $ e r                                             ",
"                      : L O.%. .X.G.R.r.n r $ @ # 2 = 7 u C } Y N L  .B B G V - h -                                             ",
"                < G L V 1 B ] +.[ >.H.3.&       V H Y }  .+. .Y V Y  .} L V G 2 =                                               ",
"              : G Y ] ] ] G B J L N           > G L  .+.+.+.] V C } ] S O.S M M                                                 ",
"            ; G L Y L ] L } G : 4             B H ] +.+.+. .] V L } Y L Y N B V                                                 ",
"            1 L ] Y Y L ] Y N <             : G L  .+.+.+.] C V } +. . .S 4 C 1                                                 ",
"            O 1 C L ] Y Y 1 G C             : C Y +.+.+. .[ S S  .+.%.[ B B V                                                   ",
"              ; : < B C 4 > < O         4 . $ = 9 H } +.[ J G B B G L G M V 1                                                   ",
"                  : : S S V 1         H J o w w w 0 8 B J ] ] P H C V S < M                                                     ",
"                    O L H O           M 8 e g g g g d e 0 8 N G L Y Y V                                                         ",
"                      O O             o w g g g g d e d d d e w q 8 1 %                                                         ",
"                                      * g g g g g d 0 w w e e d g w @ z I                                                       ",
"                                    $ d g g g g d 0 o o & 6 0 w * - 7.E.^...                                                    ",
"                                    w g g g g d 0 o       . o @ I V./.C.x.c.P                                                   ",
"                                  & g g g g e 6 o             I A.C.k.S.C.8.v X                                                 ",
"                                e d g g g e 6 o                 ..x.E.7.h d g *                                                 ",
"                            M Z r g g g g w o                     *.) d g g g e                                                 ",
"                          M L O.H r d g g e                       6 d g g g d 0                                                 ",
"                        O C  .+.+.] a e g 0                     1 r d g g g g 0                                                 ",
"                        > M H O.+.+. .K y o                   > L Y Z r e d g 6                                                 ",
"                    : M G ] C G } +.+. .B                     V } +.+.} K Z i @                                                 ",
"                O B Y  .[  .O.L V J ] B                       4 L  .+.+.+.+.[ >                                                 ",
"              O V } +.+.+. . .[ V O :                         > < B L } O.+.G                                                   ",
"                < G } +.+.+.O.}  .L                       1 L ] ] J V 4 M C :                                                   ",
"                  : V Y } +.+.+.%.%.L                   1 [ %.+.%.%.%. .C >                                                     ",
"                      N H } +.+.&.-.-.]               : Y +.+.+.+.+.+.%.&.&.+.P                                                 ",
"                        1 H  .+.&.-.-.-.C             B } O.+.+.O.+.+.+.=.2.2.-.} <                                             ",
"                          : S } %.-.-.2.P             1 V G L Y Y  .O.+.%.-.-.-.2.Y                                             ",
"                            O V [ %.=.-.L                   : 1 N C J ]  .+.&.=.&.+.1                                           ",
"                                4 Y +.%.V                           : < B G L [  .+.M                                           ",
"                                  > L J                                     + < B C :                                           ",
"                                    ;                                                                                           "
};
