/* XPM */
static char *fda2143103f3480bef8b6c36f8489f45Eh6zqcuNRtxORXVd[] = {
/* columns rows colors chars-per-pixel */
"64 64 199 2 ",
"   c None",
".  c #030103",
"X  c #0B020C",
"o  c #070808",
"O  c #0B0C0B",
"+  c #070108",
"@  c #0E100F",
"#  c #0F0310",
"$  c #0F0910",
"%  c #130314",
"&  c #130A14",
"*  c #170319",
"=  c #1B041D",
"-  c #170918",
";  c #1B0A1C",
":  c #1A0F16",
">  c #0F1111",
",  c #131414",
"<  c #1B1A16",
"1  c #1C111D",
"2  c #171A19",
"3  c #1B1D1C",
"4  c #161618",
"5  c #231D1A",
"6  c #241717",
"7  c #3F1F1F",
"8  c #1D201F",
"9  c #27211B",
"0  c #1F0421",
"q  c #1E0D21",
"w  c #1F1422",
"e  c #1E1D20",
"r  c #220525",
"t  c #230D24",
"y  c #260529",
"u  c #2A052D",
"i  c #270D29",
"p  c #290C2C",
"a  c #211623",
"s  c #221C24",
"d  c #2A112C",
"f  c #281425",
"g  c #321C2D",
"h  c #2E0531",
"j  c #2E0932",
"k  c #320636",
"l  c #310C35",
"z  c #360A3A",
"x  c #390D3E",
"c  c #340738",
"v  c #321335",
"b  c #361339",
"n  c #3A163E",
"m  c #3C1C3D",
"M  c #391E33",
"N  c #1F2221",
"B  c #222524",
"V  c #242927",
"C  c #262B29",
"Z  c #2A2E2C",
"A  c #2B2829",
"S  c #3A292A",
"D  c #2B302E",
"F  c #32312D",
"G  c #2F2F30",
"H  c #332234",
"J  c #372A38",
"K  c #2D3331",
"L  c #313434",
"P  c #323936",
"I  c #353C3A",
"U  c #383E3C",
"Y  c #393835",
"T  c #443834",
"R  c #4D3130",
"E  c #39413E",
"W  c #464133",
"Q  c #45423A",
"!  c #51473A",
"~  c #60512A",
"^  c #786536",
"/  c #3E1342",
"(  c #3E1941",
")  c #3E3941",
"_  c #431A46",
"`  c #441748",
"'  c #461A4A",
"]  c #491C4D",
"[  c #401644",
"{  c #4D1F51",
"}  c #432543",
"|  c #432945",
" . c #4A394B",
".. c #4E2052",
"X. c #533D4D",
"o. c #3C4542",
"O. c #3F4845",
"+. c #434443",
"@. c #414A46",
"#. c #444D4A",
"$. c #4C4C4C",
"%. c #4C494A",
"&. c #47514D",
"*. c #48524E",
"=. c #4D5047",
"-. c #564758",
";. c #4B5551",
":. c #4F5955",
">. c #505B56",
",. c #5A525B",
"<. c #545E5A",
"1. c #5C5D5C",
"2. c #5A5656",
"3. c #594D4A",
"4. c #635849",
"5. c #6A5452",
"6. c #785E5E",
"7. c #56605C",
"8. c #676354",
"9. c #756A53",
"0. c #746951",
"q. c #675C68",
"w. c #656365",
"e. c #6E616F",
"r. c #6C6A6C",
"t. c #6E6470",
"y. c #706471",
"u. c #766977",
"i. c #757574",
"p. c #7A7A77",
"a. c #947C4C",
"s. c #85795D",
"d. c #887C5E",
"f. c #886F4F",
"g. c #846A6A",
"h. c #877F67",
"j. c #8B7A7A",
"k. c #AF914A",
"l. c #8D8163",
"z. c #978969",
"x. c #8F8779",
"c. c #A1936D",
"v. c #AB9B75",
"b. c #B09F78",
"n. c #B3A27C",
"m. c #F6CC6B",
"M. c #857A86",
"N. c #7F8080",
"B. c #848484",
"V. c #8D8D8C",
"C. c #8A8688",
"Z. c #979389",
"A. c #949494",
"S. c #9C9C9C",
"D. c #999797",
"F. c #A08D8D",
"G. c #A79D83",
"H. c #B4A88A",
"J. c #B6A886",
"K. c #AAA9AA",
"L. c #AAA4A6",
"P. c #BFBBAF",
"I. c #B4B4B4",
"U. c #BCBCBC",
"Y. c #B8B5B8",
"T. c #B3A9AC",
"R. c #C0AF82",
"E. c #CDBB8B",
"W. c #CAB789",
"Q. c #D2BD8D",
"!. c #C2B5B5",
"~. c #D8C595",
"^. c #FFDE81",
"/. c #E1CC9A",
"(. c #E9D39D",
"). c #F8DA93",
"_. c #EED8A1",
"`. c #F1DBA3",
"'. c #FEE6AC",
"]. c #FFE9AE",
"[. c #F6E0A6",
"{. c #FFECB0",
"}. c #C3C3C3",
"|. c #CBCBCB",
" X c #C8C7C6",
".X c #D4D4D4",
"XX c #DADADA",
"oX c #DDD5D5",
"OX c #D6CECF",
"+X c #DFDFE0",
"@X c #E6E6E6",
"#X c #E3E3E3",
"$X c #E9E9E9",
"%X c #EBEBEB",
"&X c #F6F6F6",
"*X c #F2F2F2",
"=X c #FFFFFF",
"-X c #FDFDFD",
";X c #FDFDFD",
/* pixels */
"                            . . . . . + + + + X X & - ; ; t t i i i i i t ; ; - &                                               ",
"            + X # % % * = = 0 0 r r r r r r r r r r r r r t t i i p l b / / [ / ( n v d t -                                     ",
"        . = u h h k k k k k k k k k k k k k k k k k k k k k k h j u y t 0 r u k c x / ` _ ' n d -                               ",
"        + u k k k k k k k k k k k k k k k k k k k k k k k k k k k k c c z v i = y k k k c x ` ] ] b ; +                         ",
"        . % u h h h k k k k k k k k k k k k k k k k k k k k k k k k k k k c / n t = h k k k k x ` { ] v X                       ",
"          . * y y y y y y y y u h k k k k k k k k k k k k k k k k k k k k k k x _ d * h k k k k k / ] ..( %                     ",
"            + = y y y y y y y y y u k k k k k k k k k k k k k k k k k k k k k k c _ i = k k k k k k x ] ..( $                   ",
"              + r y y y y y y y y y h k k k k k k k k k k k k k k k k k k k k k k / _ % u k k k k k k x ] ..v +                 ",
"              + r y y y y y y y y y h k k k k k k k k k k k k k k k k k k k k k k c ' t 0 k k k k k k k / ..] ;                 ",
"            . % y y y y y y y y u h k k k k k k k k k k k k k k k k k k k k k k k k ` d * k k k k k k k c _ ..v .               ",
"            . = y y y y y y u h k k k k k k k k k k k k h h h h h h h h h h h h h h / i % h h h h h h h h c { _ +               ",
"            . = r r r r r y u h h h h h h h h h h h u m ,.q.y.y.e.e.e.e.e.e.e.e.e.e.u.y.w.e.e.e.e.e.e.e.y.q. .( X               ",
"          & t i i i i i i i i i i i i i i i i i d i J K.|..XK.}.$X$X$X*X&X&X&X&X&X%X$X&X*X$X$X%X&X&X&X&X|.K.Y. .; o             ",
"        . t ......................................' ,.|..X.Xr.D.#X#X%X;X;X;X;X;X&X#X*X;X%X#X$X&X;X;X;X;XL.r.|.r.( -             ",
"        . t ......................................_ ,.|..X#X#X#X#X$X&X;X%X#X#X$X#X#X&X*X#XXX.XXX#X&X;X;X&X#X#Xr.n &             ",
"        . t ......................................_ ,.|..X#X#X#X#X*X;X;X;X*X#X|.U.U.}.U.Y.U.|.#X&X;X;X&X$X#X#Xr.n &             ",
"        . q ' _ _ ' ' ' _ _ _ _ _ _ _ _ _ _ _ _ ' / ,.|..X#X#X#X$X;X;X;X;X;X&X$X#XXX X}..X%X;X;X;X;X;X*X#X#X#Xr.b &             ",
"        . % u u u u u u u u u u u u u u u u u u u r $.|..X|.w.A.*X;X;X;X;X;X%X$X;X&X$X$X%X;X;X;X;X;X&X#XA.w. Xw.0 X             ",
"        . X = 0 r r = = = = = = = = = 0 r r r = % X s V.U.}.S.Y.#X#X#X#X#XXX.X.X+X.X.X.XXX#X#X#X#X#XXX.XI.D.A.J X .             ",
"    . % 0 h k k k k k h y y y u k k k k k h = & & B A L +.$.$.$.%.8.x.H.H.H.H.H.H.H.H.H.H.H.H.H.h.$.$.$.$.L t h %               ",
"  + * y h k k k k k k k h u h k k k k k y : < < 2 B V A Z Z L L L F Q 9.J.'.'.'.'.'.'.'.'.]./.s.T L L Z A , + u %               ",
". % y y h k k k k k k k k k k k k k k h & c.~.b.d.W Z A 3 3 B V Z G L V d.].'.'.].].].].].].b.Z G A B 3 Z Y 5 = %               ",
". = y y u k k k k k k k k k k k k k k y 9 (.{.].v.Z.XX.XI.2.6 A V 3 3 A Q.{.].'._./.~.~._.{.~.F 3 L r.D.j.x.5 # +               ",
". = y y y h k k k k k k k k k k k k k h - c.{.~.Q XX;XoX!.5.7 g.Z.c.s.z.(.W.l.4.T H g g T 9.R.z.z. X#XL.R j.3 X +               ",
"  + r y y y u k k k k k k k k k k k k k y 5 l.E.W D.*X!.g.6.T.L.G.`.E.s.T f r u h k k k h r f 9.E.P.OXg.F.C.& X .               ",
"    + = y y y y u h h h h h h k k k k k k h r S T < %.B.A.C.i.4.0.! f r h k k k k k k k k k h 0 S 4.p.V.r.s % +                 ",
"      . X * = r r r r r y y y u u h h h k k k h y r % % % & ; i y u k k k k k k k k k k k k k k u r ; % % % +                   ",
"              + + X + + % = = r r y y y y y u u u u u u u u u h h h h h h h h h h h h h h h h h u u y = # .                     ",
"                              + X X % % % % % * = = = = = = = 0 0 0 0 0 0 0 0 0 0 0 r 0 0 0 = = % # +                           ",
"                                        o O > 4 O Z P P I P D B X = 0 = , 3 3 e V 2 + +                                         ",
"                                      + V o.#.&.V K *.:.7.<.;.U % k k y N P P U *.K O O %                                       ",
"                                q p u y p H ) @.U 2 Z @.>.>.;.P * k k u 4 D P I #.C 8 8 # h l i &                               ",
"                            ; b x c k k k k j H r.D.D.1.#.Z B , = r r r % , I +.#.1.D.V.i.) = x n -                             ",
"                          & / x k k k k k k h b T.XX$X|.1.8 D K K K K K D B +.B.Y..X$X#X|.2.= k / v                             ",
"                          i / k k k k k k k u i ,.p.C.%., V C Z P P P P P K N 2 +.N.i.%.V O y k c n i &                         ",
"                      X y j h h k k k h u y 0 B K E E E o.E E C B o.o.o.o.B V P U E U U E E C = k k c y X                       ",
"                    ; i v b v p r 0 y 0 a A 2 D o.*.;.o.C @.;.o.2 I U U I , Z o.*.;.o.C O.;.o.& p i y y %                       ",
"                # u / ' ' ] ] _ x 0 % e @.#.8 Z E @.#.U 3 E #.U 2 U U U U , Z E @.#.U 3 E #.U 1 ] ] _ z r +                     ",
"                = k j M X.5.5.5.3.M & P &.#.8 Z o.#.#.@.@.@.#.U 2 E o.o.E 4 Z o.#.#.@.@.@.#.E 1 } m v k k *                     ",
"                X S a.Q.`.'.'.'.[.v.B I #.#.8 Z o.*.*.*.*.*.*.o.2 P P P P , Z o.*.*.*.*.*.*.E W Q.W.n.f.R &                     ",
"                  ~ m.).~.n.z.l.h.0.8 D #.&.B C E #.#.#.#.#.#.P 3 o.o.o.o.3 C E #.#.#.#.#.#.K ! /._.'.^.k.                      ",
"                    ^ 4.=.@.@.@.O.P Z 3 o.;.O.C V V V V V V V B D P P P P D V V V V V D C 2 Z E =.3.8.a.^                       ",
"                  O U ;.;.;.#.U K V 3 2 V U E U P U U U E E E o.o.o.o.o.o.o.o.E U U U @.Z @ E @.&.*.&.#.P O                     ",
"                  O o.;.@.K B Z U K 2 2 K P 2 X ; q q w w w w w w a a a w w w w w q q $ o 2 Z C C P o.&.*.,                     ",
"                    , C 8 C o.o.o.@.E C 3 D 2 , 1 = u h u h h h h h h h h h k k k k h 0 & V @.o.U P C C N                       ",
"                    O V E E o.o.U I o.o.K , O D D , = k u y y u u u u u u k k h h b -.C.Y.r.N K @.o.E o.K 2                     ",
"                    B o.o.o.I U o.U I o.U K , K U D , r u r % 0 0 0 0 y u k h | M. X#X.XK.B.2.Z P P o.O.U P o                   ",
"                    , D P U o.U I o.o.U K 8 > D U E 3 % r X . + + + + * y } M.XXXXL.B.A.I.U.K.%.& D o.P P 3                     ",
"                      O B P I o.o.U K N > 2 , $ ; ; = 0 X               & u.I.B.i.I..XK.q.} l k y - V P N .                     ",
"                          2 P I K N , 2 O = r h k u y #                     3 q. XL.X.j h k k k k u & B o                       ",
"                            O , O + & - r k k k h y %                           L i y k k k h u u y X o                         ",
"                                  % u k k k k k k y X                             r k k k k k k k y #                           ",
"                                % h c k k k k k k k h                           y k k k k k k k k k 0 .                         ",
"                              . % u u u u h u u u u y -                       o t u u u u u y y i d s 2                         ",
"                              , U U I L L L L L P U I Z o                     , P U E U E o.o.o.@.#.*.o.O                       ",
"                              2 &.;.*.*.*.*.;.;.;.*.E Z O                     > K O.;.;.;.*.*.*.*.*.;.@.,                       ",
"                              , @.#.&.&.&.&.&.#.#.@.U C O                     O Z I o.@.@.@.@.@.O.o.U K O                       ",
"                                , 2 Z D D D Z Z C B , O                         O , N V Z Z Z D K K >                           ",
"                              B C , I @.@.@.@.O.I Z ,                             , C P O.#.#.&.*.o.V Z V P U P Z               ",
"              , D o.*.:.>.>.>.:.:.@.U #.*.&.#.O.o.o.E 2                       . V @.o.o.o.@.#.#.#.@.*.:.:.>.>.>.>.;.@.K ,       ",
"          O Z &.<.7.7.<.<.<.<.:.*.*.*.*.*.*.&.&.*.*.*.E ,                     2 @.*.*.*.*.*.*.*.*.*.*.*.>.<.<.<.<.7.7.<.#.Z o   ",
"        o K ;.:.>.<.<.>.>.>.:.*.*.*.*.*.*.*.*.*.*.*.*.#.C o                 O K &.*.*.*.*.*.&.*.*.*.*.*.*.:.:.>.>.>.>.>.;.;.Z . ",
"        , &.*.&.*.*.*.*.&.&.#.#.#.@.@.o.E E @.#.#.#.#.@.K O                 > I @.#.#.#.#.@.E E o.@.@.#.#.#.#.#.&.&.&.&.&.*.@.O ",
"        , P K K D D D Z Z Z Z C C C V V V V C C C V V V B O                 O V C C C C C C V V V V V V V V V V V V V V V C C O "
};
