/* XPM */
static char *_133cbb34bbe4376ae3e441b3f0474b2ZHNVI9TFVVeYpMVA[] = {
/* columns rows colors chars-per-pixel */
"64 64 203 2 ",
"   c #010102",
".  c #090403",
"X  c #030807",
"o  c #090A07",
"O  c #03050A",
"+  c #050A0C",
"@  c #0A0C0D",
"#  c #0E070B",
"$  c #0A100F",
"%  c #05110F",
"&  c #050C12",
"*  c #0A0E13",
"=  c #090B16",
"-  c #061114",
";  c #0C1215",
":  c #0D1817",
">  c #07131B",
",  c #0C141A",
"<  c #0D191C",
"1  c #121316",
"2  c #11151B",
"3  c #121A1D",
"4  c #1C1C1E",
"5  c #151917",
"6  c #0F1520",
"7  c #0E1B22",
"8  c #0F1F29",
"9  c #101623",
"0  c #131D23",
"q  c #191E24",
"w  c #151F2A",
"e  c #191F29",
"r  c #0E2129",
"t  c #152125",
"y  c #1B2325",
"u  c #15232B",
"i  c #1B252B",
"p  c #172C2E",
"a  c #1C292E",
"s  c #162531",
"d  c #1B2631",
"f  c #162A32",
"g  c #1C2B33",
"h  c #1B2E39",
"j  c #1D3136",
"k  c #1E333C",
"l  c #1F393C",
"z  c #232526",
"x  c #21262D",
"c  c #212A2E",
"v  c #202734",
"b  c #222D34",
"n  c #222E39",
"m  c #282F39",
"M  c #233236",
"N  c #293235",
"B  c #24343B",
"V  c #2A343C",
"C  c #25393D",
"Z  c #2B393C",
"A  c #373E3D",
"S  c #1E3A43",
"D  c #243642",
"F  c #2B3640",
"G  c #253B44",
"H  c #2B3B43",
"J  c #253D49",
"K  c #2C3E49",
"L  c #313C43",
"P  c #323E4A",
"I  c #264046",
"U  c #2B4146",
"Y  c #26414B",
"T  c #2C434C",
"R  c #2D484F",
"E  c #334245",
"W  c #3E4947",
"Q  c #32444C",
"!  c #39444A",
"~  c #344A4E",
"^  c #2D4552",
"/  c #2D4953",
"(  c #2F4C5C",
")  c #324652",
"_  c #394752",
"`  c #334B54",
"'  c #3A4C54",
"]  c #344E5A",
"[  c #3A4E5A",
"{  c #2F515B",
"}  c #335155",
"|  c #3C5256",
" . c #35525D",
".. c #3B535C",
"X. c #3B595E",
"o. c #394E61",
"O. c #344F61",
"+. c #355563",
"@. c #3B5562",
"#. c #375863",
"$. c #3D5A65",
"%. c #3D5C6A",
"&. c #3A586B",
"*. c #3E5F71",
"=. c #3E616B",
"-. c #3E6272",
";. c #3D6478",
":. c #404D54",
">. c #435157",
",. c #42545C",
"<. c #405A5C",
"1. c #425762",
"2. c #435B64",
"3. c #4B5C65",
"4. c #435D6A",
"5. c #4A5D6A",
"6. c #495561",
"7. c #515E69",
"8. c #475F72",
"9. c #446266",
"0. c #4A6167",
"q. c #44626D",
"w. c #4A636D",
"e. c #45686F",
"r. c #516066",
"t. c #53636D",
"y. c #446472",
"u. c #4A6572",
"i. c #466973",
"p. c #4C6A75",
"a. c #456678",
"s. c #4A6778",
"d. c #456A7A",
"f. c #4C6C7B",
"g. c #506470",
"h. c #526B75",
"j. c #586D76",
"k. c #526D7A",
"l. c #5A6E7D",
"z. c #4E7076",
"x. c #4D717D",
"c. c #53727D",
"v. c #5A737D",
"b. c #63727F",
"n. c #476F81",
"m. c #4D6E80",
"M. c #516F80",
"N. c #4D7282",
"B. c #4F7A84",
"V. c #547483",
"C. c #5A7683",
"Z. c #557986",
"A. c #5B7A85",
"S. c #547689",
"D. c #587789",
"F. c #557A8A",
"G. c #5B7C8B",
"H. c #5C7F91",
"J. c #637C86",
"K. c #627E8B",
"L. c #717E85",
"P. c #607D91",
"I. c #5D818C",
"U. c #5D8292",
"Y. c #62828E",
"T. c #6A8089",
"R. c #66888A",
"E. c #638593",
"W. c #6A8593",
"Q. c #648996",
"!. c #6A8A96",
"~. c #658B9B",
"^. c #688D9A",
"/. c #6A8C9B",
"(. c #64869B",
"). c #718B94",
"_. c #718E9C",
"`. c #67909F",
"'. c #6D919D",
"]. c #72949E",
"[. c #6C8FA2",
"{. c #718EA1",
"}. c #6D93A2",
"|. c #6F99A6",
" X c #6F94AA",
".X c #7294A3",
"XX c #7A97A7",
"oX c #749AA6",
"OX c #7999A4",
"+X c #7395A9",
"@X c #749AAA",
"#X c #7A9CAA",
"$X c #769EB0",
"%X c #7DA1AF",
"&X c #7DA4B3",
"*X c #7DAAB7",
"=X c #80A0AF",
"-X c #81A5B5",
";X c #84AABB",
":X c #84A9B7",
">X c #8AB1BD",
",X c #84B0BD",
"<X c #8BB2C2",
/* pixels */
".   i E .   u Y.,.          v V H  .2._ , & N ^ p.^.}.!.G.+Xl.b [ K.C.T , 1 y O x 6.E.}.x. .2.G s e ; U X.@.2.2.2.y C u.f.N.4.  ",
"  0 J...0 * k.%XC.O       i F M h D G K K F M s f ^ u.G.&XE.D ; 0 Q ~ , b w.j.N 0 T f.G.%.@.$. .1.Q 0 H %.4.2.@.%.N 1.f.N.(.).3 ",
"@ v.!.^ d u V.;XE.0   O F | T k D D @.p.@...1.K D d g J u.T 7 3 0 g b   ~ V.N.J 3 T 4.a.y.y.%.%.Y.Y f D ` ` T @.] 0 T y.H.V.H ; ",
"u.^.U.@.N y %.E.V.V O Q q. .@.^ ] 4.P.V.s.$.@.u.A.u.J f L N B k.1.] ` H N C.oXq.0 Q C.V.G.A.4.4.Y.$.f a m i a k Q O Q K.k.0     ",
"~.U.~...t H c.f.q.a Q $.#.+.@.@. .C.P.f.f.f.V.U.G.I.I.B   + ] :X.X .] F , _ :XC., H V.N.Z.D.V.] c.p.B , . . @ ; ,   O _ y   + H ",
"I.G.f.) t 0 u.u.2.3 Q $.+.@.+.@. .k.D.M.a.V.G.G.G.G.}.` .   u.oX&XG.G B y O v.3.  C _.G.S.S.G.a.] C.Q *   .     y Z @ X y b w.'.",
"z.u.P d & + 0 u , @ M u.C.p.q.+.#.s.D.u.V.G.G.U.G.F.}.^ . O V.oXoXE.c.T V 3 ; ; + f G.^.V.V.V.V.%.E...;     g w.u.` M 0 ~ [ A.D.",
"/ b O * Z E N b + . g Y A.E.D.s.s.V.V.u.q.4.@.s.V.Q.^.g . 3 D.'.E.G.!.D.` ,.q   3 T Q.[.x.y.G.V.V.}.V.0   N D.Y.V.G u < Q T ] 5.",
"` c   M X.R R F +   , G  .Y.~.E.U.U.I.q./ 4.[ ]  .h.) 0   H V.q.=.D.Y.Q.a.@.q   g oX@X~.Z. .k.Y.V.+XoXN . 2.D.G.4.g O q ~ T ` _ ",
"C V + Q w./ Y M ;   * U ]  .@.D.U.q.u.@.R Q y 3 y t 1 .   U V.4.%.f.E.U.V.G &   a E.E.^.~.S./ y.%X;X@.t a @.Z.V.u.u   a Q T T T ",
"b , 0 [ !.p.G F 0   i B G ..) %.+.G G ..) ,   * a C < X   y .. .q.y.V.D.#Xq.T b g k f R Y.+X_.@.K.w.s 0 3 @.x.q.q.B @ F @. ...G ",
"a O E w.G.E.J B a O 0 Z M C ,. .` Q k T H 9 V T @.c.X.C ; O y l q.p.f.s.E.}.$...h K N t T c.u.) D P V * + R !.I.Y.T : T 4.@.4. .",
"3 + | q.*.f.k.B g i * ; y g C | K a M F s ) w...#.s.v.k.w.D < 0 / u.G.c.m.+XE.{  .2.Q , 0 C M B C F G @   g j.W._.H - ,.4.@.p.4.",
"1 3 X.%.y.%.k.w.k j H 0 X ; i g > O O 2 u A.Z.$.N.s.8.4.U.oX[ & > j ,.k.k.D.E.Z.%.{ Q t , b i & ; 3 t X     e H M 0 y ) k.u.A.u.",
"2 ; @.y.2.$.@.q.q./ G T -   . 0 Q | L O Z v.a.V.U.U.G.D.Z.-Xw.u +     , J w.f.V.^.A.Q 3 g h <.b   @   & b ;   .   X a h p.$.] ^ ",
"g X ) k.4.$. ...@.p.q.Y 3   + 3.u.1.w.) u d w.S.Z.V.z.p.u.D.4.H c @ i M g a ~ t.j.5.9 r  .] Y.l.+ .   0 v.5.w     $ Z T u.c.%. .",
"] - a ^ w.q.] ] ..V.#Xk.Q 5 + 1.D.p.y.p. ., y 4.!.E.V.q.k.f.J M + Q 6.T Q H C g & O F f.I.$.M.A.B .   y G.V.D       M h.p.i.k.w.",
"u.3 i D T A.k.$.p.^.}.y.T ; * 5./.S.N.f.A.N   = G /. X^.E.p.M O y ` J J J  .4...~ a w.~.G.A.J %.2.a * D A.W._   .   ; ..q.$.$.$.",
"2.M < D B T c.E.^.I.%.` > B G _ W.U.D.x.!.q     t '.K.D B i < Q ` u.f.$./ ..@.+.4.C & 4.-Xs. .^ ( @.N O 0 ~ ;         B q.i.y.4.",
"M V X @ y g k 1.y. .' N 0 1.@.7 4./.V.`.C.  3 y O C N   X ; T @.$.f.A.c.@...@.4.u.V O H >XZ.%.$...g     5 @ . O t B < < T ) J f ",
"&   . .   + 0 g G a b , b 1.@.D 8 C.{.#XT   '  ., X     ;  .u.%.u.p.k.p.@.+.4.c.1.b & L ).oXD.H ; O M ..w.0.' > h.K.w.3 0 0 y g ",
"5.*     X * 7 K v.] d V 0 ) %...0 n K.9.0   4.G.2.` @   _ k.s.h.p.c.k.u.y.y.k.w.D H ,   < 4.T X   3.oX;X~.n.y.B  .q.f.B O b H 2.",
"_.1.+ y g Q u.Y.'.-XE.T u M 4...' 0 u       i s.Y.R.* O @.F.y.h.p.p.$.p.c.G.u.k B k c .   a ,   X V c.OXk.c.u.u G q.%.U g Q  .p.",
"D.f.a b u.K.s.+.N.I.V.] B i ) @.%.I i b b N 0 s V 2   . b I.x.q.@.2.]  .@.@.` k C b 2   + y < 0 3 + 9 H j Q N % T w.w.b 0 .. .$.",
"G.a.V i 4.q.$.V.D.D.( W.4.< M 4. .} q.p.i.i.p.3.H 0 O   * ' c.Q b 0 V ) D K ' ~ M 2 O 0 K v.u.^ G Q Q         a  .k.' &   u ] $.",
"~.V.F M  .%.V.D.D.u.y./.w.t b w. .` $.u.q.q.y.q.z.A.q.U u 0 7 d 0 , O F Z N M C t 0 C %.G.~.}.G.Y.p.4.y       a ' C &     g 4.u.",
"Q.Z.C C c.q.c.Z.V.G.~.^.T ; * u h ..4.c.i.q.q.q.%.c.Z.F.v.0 b $.y.2.t t c @   t C ` V.^.U.G.I.G.p.$.=.H   .     O     .   M $.I.",
"V.N...- h.Q.f.N.G.!.U.&X1.X @ C M 3 i 2.u.q.q.u.4.s.f.Z.w.t  .V.f.$.` p @ 2 F T $././.F.E.~.D.V.y.@.%.! @   O @ u M ;   ; 7 @.OX",
"p.k.k.< - j.` ..` d r 5.>.3 Q p.@.0 O 4. .@.i.y.y.x.Z.Z.^ h 1.y.E.f. .q.H a ,.D.#XE.G.U.E.m.k.V.@.@.4.>.  0 _ 2.i. .B u ' T C.].",
"c.c.h.a   4 y ; O .         W !   X 0 @.@.) q.y.q.p.G.$.K F v.%.-.oXoXoXj.0 f ).}.D.E.U.N.m.V.k.@.4.u.j t 4.4.A.V.S M F 2.y.U.U.",
"f.u.u.M     ; Z y +   . , ;     z 4 3 }  .[ ..i.u.k.] J a   b h.f.E.<X;XG.D < k.#X~.E.V.f.f.V.4.@.u.' u ) u.$.k./ B ; u T V.E.U.",
"y.u. .i @ 0 k w.$.H a * g.V.` & L.F d $.%.@.@.%.w.) f H c     c w.p.!.}.`.h.t | D.}.}.U.a.a.a.y.u.Q , n ] q.$.u.Q 3 ; B ) W.I.G.",
"q.2.F 0 g T ] OXI.+.[ 0 w.H.u.@ A 0 U $.%.4.2.q.U 7 Q c.E.C.Q ; O ; B $.c.' + + 0 / E.$XQ.n.S.h.b b B 0 2.$.] w.M 0 M n ] E.G.p.",
"%.u.2.u C G u.!..XG.[ g H A.6.    * N H ^  .q.2.f Q u.f.x.E.#XT   y a O *           ; _ j.C.g.t & 1.h.u $.f.@.q.U F ) ` q.~.Q.x.",
"v.c.K u f ) w.4.f.'.p.H < H V * 2 , < 0 a T @.H 7 1.%.V.G.E.G.Y p R.c.i   o     . . 5 g h Q ; 3 r.u.Q 6 ,.Y.^.!.T f ) / I.&XoXoX",
"E M t b g @.$. .+.G.c.Q ;   h B K T C ; ; y H * + >.V.!.E.5.u * 1.N.D.' . . O *   0 h.Y.p.J < @ N N @   q ..p.v.C   M X.%X&X/.D.",
"0 u F C  .i.@./ ] G. .M . = j.G.N.G.w.i   , 2     z Z ` / h i z u.N.^.t.  * 0 H 3 u A.y. .i.Z     + N V 0 0 i 0 i 7 w _ A.v.) 9 ",
"B ) J ^ C.q.@.@.4.k.B y     , h.'.~.A.@.B L a , O & 2 M  .w.b < q.A.T & ' 4.4.[ k 0 g / q.=.| * H Q p.p. .0   v 5.@.h.B u ; , H ",
"I Y 4.G.p.%.$.2.k.) b 3   , t O P E.E.f./ T k K ..5.T 2.$.w.C ; U ! & H ].oX=Xu.5.] 7 7 ) D.U * k.k.i.z.k.,.* ,.c.f.a.f.d   3 T ",
"` q.OXG.%.q.4.k. .D F = t 4.v.7.6 3 K.G. .^ ` $.k.C.] p.4.%.| ,   ; B c.x.N.D.%.Q.E.j ; H u.0 + p.%.p.Z.4.Q @ * u.G.d.U.b.  2 Q ",
"..2.4.y.q.%.u.p.J D u i ..y.f.V.N   G 4.Y T ' @.@.q.i.V.4.5.6.x 1 j i.M.+.V.G.y.V.U.k X a g   $ q.4.A.G.] K ;   g _.D.V.,.2 O V ",
", 0 a ' ~ } ' d * & V  .p.p.i.` *   0 ` ) ) ` 2.$.p. .%.f.6.H * i @.G.4.u.G.V.x.E.@Xk.i   O y M 4.z.`.}.$.Q 5   3 3.' ~ < O .   ",
"; 2 2   O b ) P 2 & Q ^ k.f.q.` ,   + 2 7 0 0 b V b i Y T t     - H  .%.V.F.V.E.!.A.K.B t a K T G c.&X,X'.t.- ; B 7 & O   O y V ",
"} 9.H O N ] f.i.9.y n  .+.#.k.| Z 3   y M M y     . ; u g b 0 +   t ..&.;.S.k.J.G & 0 u Q | w.4.u w.oX*X'.>., G G D V i e v J Y ",
"@X!./ , 3.p.f.N.e.b 0 4.$.y.p.' N . ; h.f.}.#X>.  . 7 f B H H M < ; Q G.Q.%.w.N +   y [ k.%. .q.B U E.}.p.0 a ' J C D B k G  .f.",
"[..X@.B ` q.f.G.] H * Q 4.q.S J V   + 1.V.~.v.a ; b B h h G G ^ ..' B u 1.6.u + X   3 3.$.+.q.q.Q , C./.w.O 2 | %.c.q.=.V.v.c.G.",
"~./. .g C f.Z.}.%.) @ . < 0 N u * .   y H d   0 D G K  .u.u.q.k.f.q.1.C + 3 2 P | b O ' y.a.V...H a u 2.M   X M q.}.Q.F.F.x.p.y.",
"oXG.' * 0 i.Q.<XoXp.2       * i > 3 y       * '  .%.G.A.f.q.=.q.q.q.@...H   , l.a.u.f G V.N.f./ c.4.2           3.A.B.Z.f.f.$.q.",
"c...N     M Y.-X|.2.O   + 3 ..].A.$.G ; .   V @.c.^.V.+./ %.%.%.%.q.q.$.4.N 2 W.F.N.p.C Q T c.f.V.f.~ y 4 @     q 0.Z.N.c.V.A.W.",
"k d &     O 5./.Q.F O y C w.A.G.+XP.^ g   - ' @.!.U.y./ ^ ] @.@.q.4.%.y.-. .* ,.~.E.1.; N g u.u.+.y. .j b N X X . t 4.D.k.4.q.^ ",
"3 + , b x @ 0 v.!.i + ` V.D. .x.D.@.E.5.* b ` ...XG.4.] @.$.+.%.q.y.N.G.f.@.V < v./.t   @ t ` @.+... .J T ' < @ b i t i C T B f ",
", a D @.) g < < a @ O B 4.%.V.I.x.%.~.4.7 L ` $.+XU.q.$.4.%.i.c.A.v.E.%X#X%.>.i g a   5 C i 0 ` @.] ^ ` ' Y ..2.@.[ V + + y a , ",
") ) ] G.V.%.T i +     Z ..%.S.Z.Z.~.oX2.O , | $.}.}.I.p.9.w...` ' J Y  .#.q...L     O ,.A.1.0 7 T ^ ^  .$.k.c.Z.U.G.) Z X   ; V ",
"$.$. .4.C.G.V.u.` s @ y v.N.x.N.Q.C./.T.y   D  .!.oXA... .j f d g C H J D Y ] ~ ;   q u.a.Z.v.b + H ) J q.'./.'.Q.~.f.k y   C k.",
"#.+.p.$.%.O.+.F.}.^.,.* d Y.@...C > > 0 *   a @.4.@.Y J G h N b M H D D J J Y D @ 5 ; D u.oX>X9.X + H ) .. .T ..D.^.'.c.C & 2.Q.",
"y.s.D.D.D.V.p.N.Q.*Xu.i X y N @ - M g c 2   ; T B f T Q T a , + 3 0 a B k U H *   H :.; 0 ~ A.J.3   ; N -       O 3 C Q i d W.~.",
"c.A.Z.D.V.D.F.G.Z.>Xv.u c X X i h.G.E.@.P O * F M 7 w y @     @ .   O ; a L ;   . ) 4. .t   @ 3     . 2 0 i N E E Q _ O + ~ k.&.",
"v.y.c.D.N.N.V.V.V.E.C.H H c y ..Z.Z.s.J g g 6.6.5.3.` i *   . . .         O       P 2...@.H 3   O g @.u.s.f.V.U.G.H.V.x + i d [ ",
"@.V./.G.V.u.@.] o.2.S G F 0 p u.f.Z.~ 0 w 5.$.@.%.$.5.D.f.' O     + 3 M b y +     O B $.@.u. .C ,.p.a.y.y.4.%.u.x.x.x.D   # 2 a ",
"7 D h.].`.U.G.P.+XC.D N 2   g G.d.p.M - | 2.@.%.%.s.s.f.V.A.3   g F 5.y.p.u.` c O     E  .@.@.@.@.p.q.q.q.q.q.q.x.V.q.T 2 .   O ",
"  @ t V.}.}./.E.V.[ n *     b K.+Xv.V 3 Q C.V.M.V.V.D.f.N.'.M O C 1.w.q.f.c.` Q =     * p ..2.`  .i.C.u.u.y.q.q.a.A.4.' 3   .   ",
".   3 G.-XA.R k C b O       + H v.h.0   0 ..U.G.D.m.V.V.N.oXQ & [ w.] q.4.D D N *         Z ~ U ~ G 4.4. .i.u.q.y.k.T i   3 .   ",
"  . O B h.Y , O +             @ , u O   * f K.E.E.^.U.G.U.oX .d c.4.] $.k a 2 +   o     & t ; X + * h w.) ` 4.p.f...u > 2.[ <   ",
"        b <   z @           . 3 b b M @   i V.E.G.G.H.G.G.}.2.M V.A.q.) i X     @ ; q F 4.Q y 2 O   7 1. .]  .%.q.H + 1.OXV.` X "
};
