/* XPM */
static char *_f53aaf92f9f477fdeb97b747ef92b0bZZihbCANfUOOPqCD[] = {
/* columns rows colors chars-per-pixel */
"64 64 212 2 ",
"   c None",
".  c #001E97",
"X  c #001F98",
"o  c #002297",
"O  c #00249A",
"+  c #003DB0",
"@  c #1E4CAD",
"#  c #0542B0",
"$  c #0D47B0",
"%  c #1344B0",
"&  c #144AB0",
"*  c #194CB0",
"=  c #1A52B4",
"-  c #2C51AF",
";  c #2150AF",
":  c #244FB0",
">  c #2353B2",
",  c #2C53B1",
"<  c #2C59B4",
"1  c #3156B1",
"2  c #355AB3",
"3  c #204DAD",
"4  c #065CC6",
"5  c #0355C6",
"6  c #1959C6",
"7  c #0D62C6",
"8  c #1764C6",
"9  c #0467D6",
"0  c #0A72D6",
"q  c #0771D6",
"w  c #1378D6",
"e  c #2367C6",
"r  c #2C72C6",
"t  c #3274C6",
"y  c #3E75C1",
"u  c #367AD6",
"i  c #336DC4",
"p  c #047AEE",
"a  c #0E7BFE",
"s  c #087BFF",
"d  c #1079FE",
"f  c #1C7FEE",
"g  c #497AC6",
"h  c #5C7FC5",
"j  c #527EC6",
"k  c #3A8CD6",
"l  c #2381D6",
"z  c #0B8CEE",
"x  c #0B83EE",
"c  c #1A96ED",
"v  c #0386FF",
"b  c #0B84FE",
"n  c #058CFF",
"m  c #0C8DFF",
"M  c #1789FF",
"N  c #0293FF",
"B  c #0A93FE",
"V  c #0599FF",
"C  c #0C9BFF",
"Z  c #149CFF",
"A  c #1D9BFF",
"S  c #1C93FF",
"D  c #3998EE",
"F  c #2485FE",
"G  c #2989FE",
"H  c #258AFF",
"J  c #239FFF",
"K  c #2494FF",
"L  c #3997FF",
"P  c #229CED",
"I  c #0DA3FF",
"U  c #12A5FE",
"Y  c #1BA3FF",
"T  c #13A8FF",
"R  c #1CACFE",
"E  c #1CB0FF",
"W  c #35A7EE",
"Q  c #24A2FF",
"!  c #2BA2FE",
"~  c #25AAFF",
"^  c #2CADFF",
"/  c #34ADFF",
"(  c #25B2FE",
")  c #2DB5FF",
"_  c #29B8FF",
"`  c #34B4FE",
"'  c #3BB3FF",
"]  c #35BAFF",
"[  c #3ABEFF",
"{  c #5993CE",
"}  c #5792CD",
"|  c #4692D6",
" . c #508ED6",
".. c #6A9CD6",
"X. c #789FD6",
"o. c #72ACDC",
"O. c #489EEB",
"+. c #469DFF",
"@. c #4A9CFE",
"#. c #488EEE",
"$. c #4BA8E6",
"%. c #53AAE9",
"&. c #52B5EE",
"*. c #5DBAED",
"=. c #5CB2EB",
"-. c #4BA4FF",
";. c #4EAAFF",
":. c #44A7FE",
">. c #53A4FF",
",. c #54ABFF",
"<. c #5CAAFF",
"1. c #5FA7FF",
"2. c #43B4FF",
"3. c #4BB3FF",
"4. c #44BCFF",
"5. c #4CBCFF",
"6. c #51B3FF",
"7. c #5CB4FF",
"8. c #54BDFF",
"9. c #5CBDFF",
"0. c #4DB2EE",
"q. c #67B6E7",
"w. c #75BCE5",
"e. c #77BBE8",
"r. c #64B3FE",
"t. c #64BAFE",
"y. c #6CBDFF",
"u. c #75BCFF",
"i. c #63ACF7",
"p. c #3EC0FF",
"a. c #44C4FF",
"s. c #4CC4FF",
"d. c #4FC8FF",
"f. c #52C4FF",
"g. c #5CC3FF",
"h. c #55CBFF",
"j. c #5BCDFF",
"k. c #5FD0FF",
"l. c #64C3FF",
"z. c #6BC5FF",
"x. c #62CCFD",
"c. c #6DCBFF",
"v. c #73C5FE",
"b. c #7EC5FF",
"n. c #73CCFF",
"m. c #7CCBFE",
"M. c #73CFF5",
"N. c #63D3FF",
"B. c #6BD5FF",
"V. c #6CD9FF",
"C. c #66D8FF",
"Z. c #72D5FE",
"A. c #7BD4FF",
"S. c #74DAFE",
"D. c #7CDCFE",
"F. c #7ED4F5",
"G. c #79C0EE",
"H. c #83A1D4",
"J. c #95BFE5",
"K. c #80BAE6",
"L. c #86C4E9",
"P. c #95CAED",
"I. c #9BC6EA",
"U. c #86C9FF",
"Y. c #93CCFF",
"T. c #82D4FF",
"R. c #82DEFE",
"E. c #8BDCFE",
"W. c #8BD7FC",
"Q. c #93DCFE",
"!. c #9BDCFF",
"~. c #99D6FD",
"^. c #A5C1E3",
"/. c #A8C4E4",
"(. c #A4CEED",
"). c #ADCFEB",
"_. c #B3D1EB",
"`. c #A5DBFD",
"'. c #B1CFEA",
"]. c #85E0FF",
"[. c #8CE2FE",
"{. c #94E3FE",
"}. c #9BE5FE",
"|. c #99E9FF",
" X c #A2E6FE",
".X c #ABE6FD",
"XX c #A5E8FE",
"oX c #ABEBFE",
"OX c #B3E4FB",
"+X c #B3ECFE",
"@X c #BAEDFE",
"#X c #B8E6FF",
"$X c #B5F1FF",
"%X c #BCF2FF",
"&X c #C4EDFD",
"*X c #C9EAF9",
"=X c #C1F1FF",
"-X c #C4F1FE",
";X c #C7F1FF",
":X c #C5F2FE",
">X c #CCF4FE",
",X c #CDF9FF",
"<X c #D2F6FF",
"1X c #D1F5FE",
"2X c #D2F3FD",
"3X c #DAF5FC",
"4X c #DDF8FE",
"5X c #D5F9FF",
"6X c #D1EAF6",
"7X c #E1F9FE",
"8X c #E3FCFF",
"9X c #E0F7FC",
/* pixels */
"                                                                                                                                ",
"                                                                                                                                ",
"                                                                                                                                ",
"                                                                                                                                ",
"                                                                                                                                ",
"                                                                                                                                ",
"                                            O O O O O O O O O O O O O O O O O O O O                                             ",
"                                            1 2 2 2 2 2 2 2 2 2 2 2 2 2 2 2 2 2 2 1                                             ",
"                                O O O o X , H././.^.^.^.^.^.^.^.^.^.^.^.^.^.^././.H., X o O O O                                 ",
"                                1 2 2 1 1 h _.8X8X7X7X7X4X4X4X4X4X4X4X4X4X4X4X7X8X_.h , , 2 2 ,                                 ",
"                            . - H././.^.^.'.6X7X7X9X9X4X<X<X<X<X<X<X<X<X<X<X<X<X<X*X(.J.J.I.I.X., .                             ",
"                            - h _.8X7X4X4X4X3X3X3X3X3X2X;X-X-X-X-X-X-X-X-X-X-X-X-X-X>X>X>X>X,X(.j :                             ",
"                        . - H._.*X<X<X<X<X<X2X>X>X>X2X;X@X@X@X@X@X@X@X@X@X@X+X@X@X@X%X%X=X=X%XOXP...: .                         ",
"                        : j ).5X>X-X-X-X-X-X-X-X=X=X=X@X+XoXoXoXoXoXoXoXoXoXoX+X#X#X+X+X#X@X+X$X%XP.g >                         ",
"                    . : ..P.OX=X%X@X@X@X@X@X@X+X+XoXoXoXoXoXoXoXoXoXoXoXoXoXoXoXoXoXoXoX+X+X+X+X$X.XP...> .                     ",
"                    : g P.$X+XoXoXoXoXoXoXoXoXoXXX X X X X X X X X XXXXXXXXXXXXXXXXXXXoXoX+X+XoXoXoX$XL.g *                     ",
"                . : ..P. XoXoXXX}.}.}.}.}.}.}.}.}.}.}.}.}.}.}.}.}.}. XXXXXXXXXXXXXXXXXXXoXoXoXXX}.}.}.Q.G. .* .                 ",
"                > g I.%XoX}.}.}.[.[.[.[.[.[.[.[.[.{.{.{.{.{.{.{.{.}.}. X X}.}.}.}.}.}.}.}.}.{.{.[.R.R.E.{.e.t &                 ",
"            . > ..P.OX+X X[.R.D.D.D.D.D.R.].].].].[.{.{.{.{.{.{.{.}.}.}.{.{.[.[.[.[.R.R.R.D.S.Z.V.V.B.Z.T.m.=.k & .             ",
"            @ g P.$X@X+X X{.D.S.S.S.S.D.R.].].].R.R.[.[.[.[.[.E.E.E.R.R.R.T.D.D.D.S.Z.V.B.N.j.h.h.j.N.c.c.c.B.&.r *             ",
"        X @ } L.!.oXoXoXoX}.R.S.S.S.S.D.R.].].R.D.D.D.D.D.D.S.V.V.V.V.V.V.V.B.B.N.x.j.h.d.s.a.a.a.f.c.c.f.s.j.x.*.| * .         ",
"        @ y w.}.XX X XXXoXXX{.R.S.V.V.S.D.D.D.D.Z.V.V.V.V.N.j.h.j.j.j.j.j.j.j.h.f.s.s.s.[ [ [ [ a.f.l.g.4.4.h.B.S.*.t *         ",
"    O ; { w.W.}.}.}.}.}.}. X.X}.S.N.N.N.N.B.B.N.x.j.j.j.j.h.s.a.a.a.a.a.a.a.a.a.a.a.a.[ ] ] ] 4.l.l.' / 2.f.j.N.N.x.*.| = O     ",
"    O > o.}.{.[.[.[.[.[.[.}.oXXXE.D.D.D.S.Z.V.N.x.g.f.s.s.s.p.[ [ [ [ [ [ [ 4.4.s.s.s.s.5.4.4.8.v.l.^ R 2.8.j.N.N.B.S.%.= O     ",
"    O > q.[.[.].].].].].].[.}.XX@X@X#XoX X!.W.A.m.z.s.p.p.p.[ [ [ [ ] ] ] [ 5.9.z.n.n.n.n.z.y.y.u.t.` ~ ` 4.j.N.N.N.C.$.= O     ",
"    O > q.[.].].].].].].R.].[.XX&X2X>X&X&X#X X!.~.W.c.j.h.h.h.h.g.f.5.5.5.8.9.9.l.l.l.l.z.t.7.r.u.t.' ( ) 4.j.N.N.N.N.$.= O     ",
"    O > q.[.[.].].].].R.D.R.}.XX+X+X@X@X&X&X&X@X@X#X.XXX X!.!.!.~.Y.U.m.m.v.t.6.' ^ ^ ^ ^ Q S L r.t.' ( ] a.j.N.N.N.N.$.= O     ",
"    O > e.|.[.].].].R.D.S.R.}.oX X XXX+X@X=X-X-X-X-X-X=X@X@X@XOX`.Y.b.v.v.y.8.' Y I I C C B v M -.6.` ) ] a.j.N.N.N.C.%.= O     ",
"    O < K.oX}.[.].R.D.S.S.R.XXoX}.}.}.}.oX+X@X@X@X@X+XoXoXoXoX`.Y.y.2.^ ^ ^ ~ R T I C C B n v m A ^ ` ] [ a.j.N.N.B.D.=.= O     ",
"    O < J.%XXX}.[.D.D.S.D.]. XXX}.{.{.}.}.XXoXoXoXXXXX X X X X!.U.7.~ I I I I I I I C V n n n n V Y ` a.p.a.j.N.N.S.].q.> O     ",
"    O 2 ^.5X$XXX[.D.S.D.R.[.}.}.}.{.{.{.}.}.}.}.}.}.}.}.}.}.}.Q.U.7.~ I I I I I I I V N N n N N N Z 2.8.4.a.j.N.V.D.{.o.> O     ",
"    O 1 H._.@X+X}.].D.D.{.}.{.{.{.{.{.{.[.[.[.[.[.[.{.{.{.{.{.E.b.7.~ I I I I I I C N N N N N N N Z / 2.4.a.j.B.D.F.w.{ ; O     ",
"        - h _.>XoX{.].].}.}.}.{.{.{.[.[.[.].D.D.R.[.{.{.{.{.{.E.b.7.~ I I I T I V N N N N N N N N V Y ^ ] a.h.V.[.w.y @         ",
"        . - H.).OXoX}.{.}.}.{.[.[.[.D.D.D.D.S.S.D.].[.{.{.}.}.E.b.7.~ I I I U C N N N N N N N N N V C R ` f.N.M.w.{ @ .         ",
"            - h ).>X+XXX{.[.[.].R.D.V.V.S.D.S.S.S.D.].[.{.}.}.E.b.7.~ I I I C C N N N N N N N N V C C Y 2.l.R.w.y @             ",
"            . - H.'.#X+X}.[.].D.S.B.N.N.V.S.S.S.S.S.D.].[.{.{.E.b.7.~ I I I C C V N N N N N N V C C C Q 3.t.q.{ @ X             ",
"                - h (.:XoX}.R.S.B.N.N.N.V.S.S.S.B.B.S.D.].[.{.E.b.7.~ I C C C C C C C C C C C C C C C ~ 5.%.i 3                 ",
"                . , X.I.`.{.A.Z.B.N.B.Z.D.D.D.S.B.B.S.S.D.].[.E.U.t.~ I C C C Z Y Q ! ! Q Q J J J J Q ! D u % o                 ",
"                    , g e.W.m.v.m.A.T.W.E.E.[.].S.S.S.S.S.D.].W.Y.y.^ I I C C A :.,.7.7.,.;.-.-.-.-.;.D e %                     ",
"                    . *  .i.r.t.l.z.c.n.Z.A.T.T.D.A.A.D.D.R.[.Q.~.b.2.~ ~ ~ Q ! :.,.<.<.>.-.@.@.@.@.#.u % o                     ",
"                        * e D ` ) ^ ^ ` ] 4.g.v.m.T.T.T.W.Q.}.XX`.Y.t.6.7.7.,.L K S H G G F F H S f 6 %                         ",
"                        o # w c U T T T R ) 2.9.z.z.z.z.c.n.T.E.Y.U.1.>.<.<.>.L M s a a a a a s p 9 + o                         ",
"                            # 7 c E R R ( ` [ 4.4.2.' ` ` ` [ 5.t.1.L F G G F M d a a d d a n p 5 +                             ",
"                            o # w c ~ ( ] [ [ [ ] ` ) R T T R ^ -.@.F d a a a d d d a a b b p 9 + o                             ",
"                                # 7 c _ ] [ p.[ [ [ ] ) ~ R R ^ -.@.F d a d d d d a s v B x 5 +                                 ",
"                                o # w P ` a.a.a.a.a.a.[ ) ( ( / ,.@.F a a a a a a b n n x 0 # o                                 ",
"                                    # 8 W a.s.h.j.j.h.s.[ ] ) ' ,.+.M v b b b b b m C z 4 #                                     ",
"                                    o $ l W f.k.N.N.j.h.s.p.[ 2.,.+.M v n n n n B B z 0 # o                                     ",
"                                        $ e 0.N.N.N.N.j.h.s.p.2.,.+.S n n N n V C z 4 #                                         ",
"                                        o * k &.j.N.N.k.j.h.s.5.,.-.A N N N V V z 0 # o                                         ",
"                                            * r &.C.N.N.N.j.h.8.<.-.A C C C I z 4 #                                             ",
"                                            . * k &.x.B.B.N.j.g.7.-.J C C C z 0 # o                                             ",
"                                                & r *.S.S.V.N.x.r.;.Q I I z 4 #                                                 ",
"                                                . * | q.Z.S.B.x.t.3.~ C z 0 # o                                                 ",
"                                                    * t q.S.C.x.9.3.~ z 4 #                                                     ",
"                                                    . * | *.x.N.l.3.c q # o                                                     ",
"                                                        * t *.S.x.O.8 #                                                         ",
"                                                        . * | %.O.u % o                                                         ",
"                                                            = = * *                                                             ",
"                                                            O O O O                                                             ",
"                                                                                                                                ",
"                                                                                                                                ",
"                                                                                                                                ",
"                                                                                                                                "
};
