/* XPM */
static char *_39425978270440efa83369b00caa766YMcRv4TwtMhe6dan[] = {
/* columns rows colors chars-per-pixel */
"64 64 169 2 ",
"   c None",
".  c #040204",
"X  c #0C020C",
"o  c #070808",
"O  c #0B0D0C",
"+  c #0E100F",
"@  c #0F0111",
"#  c #0F0D10",
"$  c #130414",
"%  c #130A14",
"&  c #160318",
"*  c #1B041D",
"=  c #170A18",
"-  c #1A0A1C",
";  c #0F1110",
":  c #131514",
">  c #151817",
",  c #1A111C",
"<  c #171919",
"1  c #1A1D1C",
"2  c #1B1614",
"3  c #1D201F",
"4  c #1E0421",
"5  c #1E0A21",
"6  c #1F1B22",
"7  c #220425",
"8  c #220C25",
"9  c #260529",
"0  c #2A052D",
"q  c #270E2A",
"w  c #2A0C2D",
"e  c #2C112E",
"r  c #2A1F2D",
"t  c #27132B",
"y  c #2E0532",
"u  c #2E0C32",
"i  c #320636",
"p  c #320C35",
"a  c #340738",
"s  c #350B39",
"d  c #3A0E3D",
"f  c #2F1231",
"g  c #311333",
"h  c #321135",
"j  c #321435",
"k  c #341537",
"l  c #311334",
"z  c #351038",
"x  c #36103A",
"c  c #361639",
"v  c #361139",
"b  c #38163B",
"n  c #3A123E",
"m  c #3A153D",
"M  c #3A153D",
"N  c #3A183D",
"B  c #3C193F",
"V  c #1E2221",
"C  c #222524",
"Z  c #242927",
"A  c #262629",
"S  c #2B242E",
"D  c #262B29",
"F  c #292E2C",
"G  c #342020",
"H  c #342F24",
"J  c #2B312E",
"K  c #2D2631",
"L  c #2E2D31",
"P  c #312E33",
"I  c #3A253C",
"U  c #2E3331",
"Y  c #303634",
"T  c #323936",
"R  c #343538",
"E  c #353C39",
"W  c #383F3C",
"Q  c #463720",
"!  c #413B2C",
"~  c #4A313F",
"^  c #5C3F3C",
"/  c #39413E",
"(  c #484028",
")  c #4B4739",
"_  c #3C0F40",
"`  c #3D1141",
"'  c #3F1243",
"]  c #3E1142",
"[  c #3D1A41",
"{  c #401344",
"}  c #421546",
"|  c #411546",
" . c #431B47",
".. c #441748",
"X. c #441749",
"o. c #46194A",
"O. c #451C49",
"+. c #4A1D4D",
"@. c #4A1D4E",
"#. c #4C1F50",
"$. c #4D1F51",
"%. c #4D1F51",
"&. c #462741",
"*. c #432C46",
"=. c #4A3F4B",
"-. c #453E46",
";. c #533844",
":. c #4D2051",
">. c #4D2151",
",. c #4E2152",
"<. c #4F2153",
"1. c #4E2153",
"2. c #4D2152",
"3. c #4F3C51",
"4. c #3D4542",
"5. c #3F4845",
"6. c #434645",
"7. c #414A46",
"8. c #4A4B40",
"9. c #454E4A",
"0. c #4C4C4C",
"q. c #5D4447",
"w. c #47504D",
"e. c #48524E",
"r. c #585541",
"t. c #5A5A4B",
"y. c #504F50",
"u. c #4B5551",
"i. c #4E5854",
"p. c gray35",
"a. c #644D4D",
"s. c #6B584F",
"d. c #69614B",
"f. c #656351",
"g. c gray43",
"h. c #746676",
"j. c #7F7E7F",
"k. c gray46",
"l. c #8F7C4B",
"z. c #94774B",
"x. c #867160",
"c. c #837B60",
"v. c #B7984E",
"b. c #928366",
"n. c #9A8467",
"m. c #968866",
"M. c #9D9170",
"N. c #B9A97F",
"B. c #B4A37A",
"V. c #C9A757",
"C. c #808080",
"Z. c gray54",
"A. c #BBAB81",
"S. c #A4A2A4",
"D. c #ACACAC",
"F. c #BBBABB",
"G. c #CCB88B",
"H. c #D4C090",
"J. c #F2D285",
"K. c #E4CF9B",
"L. c #FADB91",
"P. c #F2DCA4",
"I. c #FBE4AA",
"U. c #FFE9AE",
"Y. c #C2C0C2",
"T. c gray80",
"R. c #D5D4D5",
"E. c #EAEAEA",
"W. c gray97",
/* pixels */
"                                                    % % % % % % % X                                                             ",
"                        % = - 8 8 q w w u p h h z z z z x n n n m m b c j e 8 -                                                 ",
"              . $ 7 w u p s s s s s s s s a i i i i i i i i i i a s s d _ { }  .[ f -                                           ",
"            . 4 i i i i i i i i i i i i i i i i i i i i i i i i i i i i i i i s ` o.+.B 5                                       ",
"            . * y i i i i i i i i i i i i i i i i i i i i i i i i i i i i i i i i s ` +.+.j X                                   ",
"              X 7 9 0 0 0 y y y y y i i i i i i i i i i i i i i i i i i i i i i i i i s o.,.m X                                 ",
"                X 7 9 9 9 9 9 9 9 9 9 9 9 9 0 0 0 0 0 y y i i i i i i i i i i i i i i i s o.,.k .                               ",
"                  $ 9 9 9 9 9 9 9 9 9 9 9 9 9 9 9 9 9 9 9 9 0 y i i i i i i i i i i i i i s +.,.8                               ",
"                  X 7 9 9 9 9 9 9 9 9 9 9 9 9 9 9 9 9 9 9 9 9 9 y i i i i i i i i i i i i i d $.B X                             ",
"                  $ 9 9 9 9 9 9 0 0 y y y y y y y y y y y y i i i i i i i i i i i i i i i i i o.+.=                             ",
"                . & 9 9 9 9 0 y i i i i i i i i i i i i i i i i i i i i i i i i i i i i i i i d ,.q                             ",
"                . * 7 7 7 7 0 y y y y y 0 0 0 0 0 0 0 0 0 9 9 9 9 9 9 9 9 9 9 7 7 7 7 7 7 7 7 9 g 8 .                           ",
"              . = 5 8 8 8 8 q q q w w e e e e f f f g h j j j k c c c c b B B B B [ [ [ B z z z s z 5                           ",
"              X p ` +.,.,.,.,.,.,.,.,.,.,.,.,.,.,.,.,.,.,.,.,.,.,.,.,.,.,.,.,.,.,.,.,.,.o.a i i i i 4                           ",
"              . 0 s +.,.,.,.,.,.,.,.,.,.,.,.,.,.,.,.,.,.,.,.,.,.,.,.,.,.,.,.,.,.,.,.,.,.o.i i i i i 4                           ",
"              . 9 s +.,.,.,.,.,.,.,.,.,.,.,.,.,.,.,.,.,.,.,.,.,.,.,.,.$.$.$.$.$.$.$.$.$.o.s i i i i 7 .                         ",
"              . 9 s } ....} } } } } } } { { ` ` ` ` ` ` ` ` n d d d d d d s s s s s s s p y y y y y 4 .                         ",
"              . * 7 7 7 7 7 7 7 7 7 7 7 4 4 4 4 4 4 4 4 4 * * * * * * * * * * * * * * * 4 4 4 4 4 * & X                         ",
"              X & 7 9 9 9 9 9 9 0 0 0 0 0 0 0 0 0 y y y y y y y y y y y i i i i i i i i i i i i i i y y 9 $                     ",
"          . $ 9 i i i i i i i i i i i i i i i i i i i i i i i i i i i i i i i i i i i i i i i i i i i i i y * . O O             ",
"          & 9 y i i i i i i i i i i i i i i i i i i i i i i i i i i i i i i i i i i i i i i i i i i i i i i y X : 1 : :         ",
"        . 7 9 y i i i i i i i i i i i i i i i i i i i i i i i i i i i i i i i i i i i i i i i i i i i i i i i & Z W E T >       ",
"      . X 7 9 0 i i i i i i i i i i i i i i i i i i i i i i i i i i i i i i i i i i i i i i i i i i i i i i i % D 4.W E >       ",
"  O D F : * 9 9 0 i i i i i i i i i i i i i i i i i i i i i i i i i i i i i i i i i i i i i i i i i i i i i 4 1 Y 4.E Y +       ",
"  > W 4.T % * 9 9 9 0 y i i i i i i i i i i i i i i i i i i i i i i i i i i i i i i i i i i i i i i i i 0 * V / E 9.W J o       ",
"  1 T / / J 1 & 4 7 9 9 9 9 0 9 0 y y i i i i i i i i i i i i i i i i i i i i i i i i i i i 0 7 7 7 4 & # 3 J J F J D :         ",
"  Z E 4.E W / D A , % , % @ * 4 7 7 9 9 9 9 0 0 0 0 0 0 0 0 y y y y y 0 0 0 0 0 0 0 0 9 7 * $ .     . 1 D U Z < : < Z O         ",
"  1 T 5./ 5.4./ 9.J < F O       X X $ $ & & * * * * * * * * * * * * * * & * * * & & $ @ X           o D / e.w.9.7.9.9.>         ",
"    + 1 1 C F Y T 1 +                         . < C Z U U J J J J F V 3 o                           ! d.8.6.7.9.9.9.E           ",
"    > W T Y E E T U Z                       > 1 C Z D F F F F F F F D D C 3 < O                   X m.U.K.A.M.b.l.(             ",
"    : 7.u.u.w.w.9./ ) H           =     . J 7.9.9.9.9.9.9.9.9.9.9.9.9.9.w.w.9.Z . 7 w p s z z e % w ~ b.H.P.I.L.V.              ",
"      V T r.t.f.c.N.P.B.2   q h s s p u 4 C w.7.E E E E E E E E E E E E W 9.9.< * i i i i i a s * s +. .&.;.q.^ G               ",
"          v.J.I.U.I.G.s.e * s s i i i i i q 4.9.4./ / / / / / / / / / / 4.e.E % 0 i i i i i i i 0 8 m +.+.} s 9 @               ",
"          Q z.n.x.a.&.O...4 9 i i i i i i 9 F 9./ / / / / W W W W W W W 4.w.Z 7 0 0 y i i i y 0 y 0 7 8 8 8 *                   ",
"          X 7 y s ..$.+.g 7 y y i i i y 0 * D 9.W E E E E E E E E E E E / 9.C 9 7 @ 9 9 7 7 4 & * * * &                         ",
"              7 w j e 8 4 9 7 * 7 7 7 * * = / w.4.4.4.4.4.4.4.4.4.4.4.4.4.w.E - * .                                             ",
"                        &             . : Y e.7.E T T T T T T E E E E E E 9.e.T : .                                             ",
"                                      + U 5.e.w.7.4.4.4.4.4.4.4.4.4.4.4.7.w.e.4.U :                                             ",
"                                      ; U 5.e.7.E T T T T T T T T T T T E 9.e.4.U :                                             ",
"                                      ; U 4.e.w.7.4.4.4.4.4.4.4.4.4.4.4.7.w.e.4.Y :                                             ",
"                                      ; U 4.e.9.E E E E E E E E E T T T E 9.e.4.Y >                                             ",
"                                      O U 4.e.w.5.4.4.4.4.4.4.4.4.4.4.4.7.w.e.4.U :                                             ",
"                                      . O 1 A F F U Y Y T E E E T Y U L F A C 6 = .                                             ",
"                                    1 0.Z.=.9 0 9 9 9 7 7 7 7 7 7 9 9 9 9 9 9 7 & .                                             ",
"                            X $ - j.D.g.E.R.*.i i i y y y y y y y 0 0 y y y y 0 9 * X                                           ",
"                        0 7 9 0 9 I Y.D.k.W.S.u i i 9 7 7 7 7 7 7 7 7 y i i i i i 0 7 & X                                       ",
"                      i i i i i y 7 -.E.C.S.E.3.y y 7 @ X X X X X X * i i i i i i i y 0 7 & .                                   ",
"                    y i i i i i i y & j.F.p.T.h.7 7                   0 i i i i i i i i 0 9 4 &                                 ",
"                    0 y y 0 0 q t r L F y.F 6.P                         & 7 0 i i i y 9 0 y i i i i                             ",
"                  # S P R E / 5.9.e.u.4.o                                   X & 7 0 * 0 i i i i i i i                           ",
"                  O J 7.u.u.u.e.e.e.e.7.1                                         X % 9 0 y y y y y y 4                         ",
"                    V E 7.7.5.4.W T J 1                                           > / W R P K K S K S 6                         ",
"                    O > 1 Z D F J E E #                                           3 e.u.u.e.e.e.e.e.4.D                         ",
"                        1 F Y T T T U <                                           1 4.7.9.9.w.w.9.9.W V                         ",
"                O : J 4.9.u.u.u.u.u.e.9.T ;                                         O D J F J J F Z 1 ;                         ",
"            V Z J 9.u.u.e.e.e.e.e.e.e.e.e.U o                                       o D U J F J D 1 .                           ",
"          Z / F u.u.e.e.e.e.e.e.e.e.e.e.e.7.<                                     Z 4.7.9.e.w.9.7.E F <                         ",
"        O 7./ D 9.w.w.w.w.w.w.9.9.9.9.9.9.7.Z                                   Z 9.e.e.e.e.e.e.e.u.u.9.Y < >                   ",
"        ; E T 1 1 Z F J J F F F F D D D D D 1                                 > 4.e.e.e.e.e.e.e.e.e.e.e.u.7.Z U +               ",
"                                                                              D 7.w.w.w.w.e.e.e.e.e.e.e.e.i.F / Y               ",
"                                                                            . V F J U U Y T E E / / 4.4.4.T Z 5.7.O             ",
"                                                                                          ; : : > > < > + O 1 D D o             ",
"                                                                                                                                ",
"                                                                                                                                "
};
